<svg id="Capa_1" enable-background="new 0 0 512 512" height="512" viewBox="0 0 512 512" width="512" xmlns="http://www.w3.org/2000/svg"><g><g><path d="m399.94 7.516h-287.882c-18.341 0-33.346 15.006-33.346 33.346v430.307c0 18.341 15.006 33.347 33.346 33.347h287.882c18.341 0 33.347-15.006 33.347-33.347v-430.307c0-18.341-15.006-33.346-33.347-33.346z" fill="#695d67"/><path d="m115.225 471.169v-430.307c0-18.341 15.006-33.346 33.346-33.346h-36.513c-18.341 0-33.346 15.006-33.346 33.346v430.307c0 18.341 15.006 33.347 33.346 33.347h36.513c-18.341 0-33.346-15.007-33.346-33.347z" fill="#544e55"/><path d="m399.94 40.029h-287.881c-.382 0-.834.452-.834.833v401.045c0 .382.452.833.834.833h287.881c.382 0 .834-.452.834-.833 0-5.707 0-394.013 0-401.045 0-.382-.452-.833-.834-.833z" fill="#8479c2"/><path d="m147.738 441.907v-401.045c0-.381.452-.833.834-.833h-36.513c-.382 0-.834.452-.834.833v401.045c0 .382.452.833.834.833h36.513c-.382 0-.834-.451-.834-.833z" fill="#6e60b8"/><path d="m284.128 7.516v81.076c0 4.262 4.811 6.747 8.287 4.281l23.853-16.929c1.819-1.291 4.256-1.291 6.076 0l23.853 16.929c3.476 2.467 8.287-.018 8.287-4.281v-81.076z" fill="#ff656f"/><g><path d="m319.306 7.516h-35.178v81.076c0 4.262 4.811 6.747 8.287 4.281l23.854-16.929c.91-.646 1.974-.968 3.038-.968v-67.46z" fill="#ff4756"/></g><path d="m232.419 98.85h-79.452c-2.988 0-5.411 2.423-5.411 5.411v79.452c0 2.988 2.423 5.411 5.411 5.411h79.452c2.988 0 5.411-2.423 5.411-5.411v-79.452c0-2.988-2.423-5.411-5.411-5.411z" fill="#5cb3f8"/><path d="m179.997 183.714v-79.452c0-2.988 2.423-5.411 5.411-5.411h-32.441c-2.988 0-5.411 2.423-5.411 5.411v79.452c0 2.988 2.423 5.411 5.411 5.411h32.441c-2.988-.001-5.411-2.423-5.411-5.411z" fill="#0290f4"/></g><g><path d="m249.542 462.814c-4.143 0-7.5 3.357-7.5 7.5s3.357 7.5 7.5 7.5h12.915c4.143 0 7.5-3.357 7.5-7.5s-3.357-7.5-7.5-7.5z"/><path d="m364.444 243.812h-90.274c-4.143 0-7.5 3.357-7.5 7.5s3.357 7.5 7.5 7.5h90.274c4.143 0 7.5-3.357 7.5-7.5s-3.358-7.5-7.5-7.5z"/><path d="m364.444 274.642h-90.274c-4.143 0-7.5 3.357-7.5 7.5s3.357 7.5 7.5 7.5h90.274c4.143 0 7.5-3.357 7.5-7.5s-3.358-7.5-7.5-7.5z"/><path d="m364.444 305.471h-90.274c-4.143 0-7.5 3.357-7.5 7.5s3.357 7.5 7.5 7.5h90.274c4.143 0 7.5-3.357 7.5-7.5s-3.358-7.5-7.5-7.5z"/><path d="m364.444 336.3h-90.274c-4.143 0-7.5 3.357-7.5 7.5s3.357 7.5 7.5 7.5h90.274c4.143 0 7.5-3.357 7.5-7.5s-3.358-7.5-7.5-7.5z"/><path d="m364.444 367.129h-90.274c-4.143 0-7.5 3.357-7.5 7.5s3.357 7.5 7.5 7.5h90.274c4.143 0 7.5-3.357 7.5-7.5s-3.358-7.5-7.5-7.5z"/><path d="m364.444 397.958h-90.274c-4.143 0-7.5 3.357-7.5 7.5s3.357 7.5 7.5 7.5h90.274c4.143 0 7.5-3.357 7.5-7.5s-3.358-7.5-7.5-7.5z"/><path d="m237.831 243.812h-90.274c-4.143 0-7.5 3.357-7.5 7.5s3.357 7.5 7.5 7.5h90.274c4.143 0 7.5-3.357 7.5-7.5s-3.358-7.5-7.5-7.5z"/><path d="m237.831 274.642h-90.274c-4.143 0-7.5 3.357-7.5 7.5s3.357 7.5 7.5 7.5h90.274c4.143 0 7.5-3.357 7.5-7.5s-3.358-7.5-7.5-7.5z"/><path d="m237.831 305.471h-90.274c-4.143 0-7.5 3.357-7.5 7.5s3.357 7.5 7.5 7.5h90.274c4.143 0 7.5-3.357 7.5-7.5s-3.358-7.5-7.5-7.5z"/><path d="m364.444 151.326h-90.274c-4.143 0-7.5 3.357-7.5 7.5s3.357 7.5 7.5 7.5h90.274c4.143 0 7.5-3.357 7.5-7.5s-3.358-7.5-7.5-7.5z"/><path d="m364.444 182.155h-90.274c-4.143 0-7.5 3.357-7.5 7.5s3.357 7.5 7.5 7.5h90.274c4.143 0 7.5-3.357 7.5-7.5s-3.358-7.5-7.5-7.5z"/><path d="m364.444 212.983h-90.274c-4.143 0-7.5 3.357-7.5 7.5s3.357 7.5 7.5 7.5h90.274c4.143 0 7.5-3.357 7.5-7.5s-3.358-7.5-7.5-7.5z"/><path d="m266.669 127.997c0 4.143 3.357 7.5 7.5 7.5h90.274c4.143 0 7.5-3.357 7.5-7.5s-3.357-7.5-7.5-7.5h-90.274c-4.142 0-7.5 3.357-7.5 7.5z"/><path d="m237.831 212.983h-90.274c-4.143 0-7.5 3.357-7.5 7.5s3.357 7.5 7.5 7.5h90.274c4.143 0 7.5-3.357 7.5-7.5s-3.358-7.5-7.5-7.5z"/><path d="m237.831 336.3h-90.274c-4.143 0-7.5 3.357-7.5 7.5s3.357 7.5 7.5 7.5h90.274c4.143 0 7.5-3.357 7.5-7.5s-3.358-7.5-7.5-7.5z"/><path d="m237.831 367.129h-90.274c-4.143 0-7.5 3.357-7.5 7.5s3.357 7.5 7.5 7.5h90.274c4.143 0 7.5-3.357 7.5-7.5s-3.358-7.5-7.5-7.5z"/><path d="m237.831 397.958h-90.274c-4.143 0-7.5 3.357-7.5 7.5s3.357 7.5 7.5 7.5h90.274c4.143 0 7.5-3.357 7.5-7.5s-3.358-7.5-7.5-7.5z"/><path d="m164.345 175.404c3.699 1.886 8.21.411 10.089-3.272l7.041-13.802h22.437l7.041 13.802c1.878 3.683 6.389 5.159 10.089 3.272 3.689-1.882 5.155-6.399 3.272-10.089l-24.94-48.889c-1.276-2.493-3.847-4.085-6.684-4.086-2.865.005-5.418 1.63-6.677 4.086l-24.939 48.889c-1.884 3.69-.418 8.207 3.271 10.089zm28.348-39.065 3.566 6.991h-7.133z"/><path d="m147.556 76.668h22.821c4.143 0 7.5-3.357 7.5-7.5s-3.357-7.5-7.5-7.5h-22.821c-4.143 0-7.5 3.357-7.5 7.5s3.358 7.5 7.5 7.5z"/><path d="m232.419 91.335h-22.116c-4.143 0-7.5 3.357-7.5 7.5s3.357 7.5 7.5 7.5h20.027v75.273h-75.274v-75.273h20.247c4.143 0 7.5-3.357 7.5-7.5s-3.357-7.5-7.5-7.5h-22.336c-7.119 0-12.911 5.791-12.911 12.91v79.453c0 7.119 5.792 12.91 12.911 12.91h79.452c7.119 0 12.911-5.791 12.911-12.91v-79.453c.001-7.119-5.791-12.91-12.911-12.91z"/><path d="m399.941 0c-9.815 0-274.555 0-287.883 0-22.522 0-40.846 18.323-40.846 40.846v430.308c0 22.522 18.323 40.847 40.846 40.847h287.883c22.522 0 40.847-18.324 40.847-40.847v-197.654c0-4.143-3.357-7.5-7.5-7.5s-7.5 3.357-7.5 7.5v197.653c0 14.252-11.595 25.847-25.847 25.847h-287.883c-14.251 0-25.846-11.595-25.846-25.847v-430.307c0-14.251 11.595-25.846 25.846-25.846h164.57v17.513h-164.569c-4.518 0-8.334 3.816-8.334 8.333v401.045c0 4.518 3.816 8.334 8.334 8.334h287.881c4.518 0 8.334-3.816 8.334-8.334v-401.045c0-4.517-3.816-8.333-8.334-8.333h-37.955v-17.513h37.956c14.252 0 25.847 11.595 25.847 25.846v197.654c0 4.143 3.357 7.5 7.5 7.5s7.5-3.357 7.5-7.5v-197.654c0-22.523-18.325-40.846-40.847-40.846zm-108.313 15h55.356v69.219l-20.3-14.407c-4.412-3.133-10.343-3.133-14.757 0l-20.3 14.407c.001-7.303.001-61.809.001-69.219zm101.646 32.513v387.712h-274.549v-387.712h157.903v41.063c0 4.789 2.643 9.129 6.897 11.327 4.254 2.197 9.324 1.842 13.23-.93l22.551-16.005 22.552 16.006c8.394 5.958 20.126-.02 20.126-10.398v-41.063z"/></g></g></svg>