<svg id="Capa_1" enable-background="new 0 0 512 512" height="512" viewBox="0 0 512 512" width="512" xmlns="http://www.w3.org/2000/svg"><g><g><path clip-rule="evenodd" d="m15.449 388.641 148.569 19.453 92.755-19.453c24.757-20.698 44.282-49.877 42.172-87.449v-85.076l-147.38-35.584-136.116 35.584z" fill="#eb5468" fill-rule="evenodd"/></g><g><path clip-rule="evenodd" d="m15.449 216.116h283.496v-23.871c0-23.634-18.813-60.582-42.232-61.739v-54.593l-105.178-31.106-93.884 31.106v54.592c-23.419 1.157-42.202 38.105-42.202 61.739z" fill="#f9f7f8" fill-rule="evenodd"/></g><g><path clip-rule="evenodd" d="m275.44 18.502v38.941c0 10.168-8.355 18.471-18.543 18.471h-199.423c-10.199 0-18.512-8.303-18.512-18.471v-38.941c-.001-10.168 8.313-18.502 18.512-18.502h199.422c10.189 0 18.544 8.334 18.544 18.502z" fill="#eb5468" fill-rule="evenodd"/></g><g><path clip-rule="evenodd" d="m298.945 216.116h-60.747v172.525h18.575c.178-6.168.832-12.247 1.932-18.148 5.112-27.578 19.674-51.835 40.241-69.301v-85.076z" fill="#e5384f" fill-rule="evenodd"/></g><g><path clip-rule="evenodd" d="m231.303 18.504v38.935c0 10.112-8.262 18.415-18.396 18.474h43.807.178c10.194 0 18.545-8.303 18.545-18.474v-38.935c0-10.171-8.352-18.504-18.545-18.504-16.286 0-27.847 0-44.134 0 10.194 0 18.545 8.333 18.545 18.504z" fill="#e5384f" fill-rule="evenodd"/></g><g><path clip-rule="evenodd" d="m256.773 388.641h-241.324v36.474c0 24.375 20.001 44.332 44.431 44.332h194.605c9.094 0 17.564-2.758 24.608-7.443 18.336-36.444 5.408-63.37-22.32-73.363z" fill="#f9f7f8" fill-rule="evenodd"/></g><g><path clip-rule="evenodd" d="m298.945 301.192c-20.566 17.466-35.129 41.723-40.241 69.301l128.359 18.148 107.496-18.148c-10.283-55.66-59.172-97.798-117.928-97.798-29.629 0-56.763 10.735-77.686 28.497z" fill="#b1e4f9" fill-rule="evenodd"/></g><g><path clip-rule="evenodd" d="m494.56 414.232-112.34-15.598-123.515 15.598c3.239 17.555 10.342 33.776 20.388 47.772 21.754 30.276 57.329 49.996 97.539 49.996 58.756 0 107.645-42.138 117.928-97.768z" fill="#b1e4f9" fill-rule="evenodd"/></g><g><path clip-rule="evenodd" d="m256.773 388.641h-18.575v36.474c0 24.375-20.001 44.332-44.431 44.332h60.717c9.094 0 17.564-2.758 24.608-7.443-10.045-13.997-17.148-30.217-20.388-47.772-1.308-7.117-1.991-14.412-1.991-21.884 0-1.246 0-2.462.06-3.707z" fill="#dddaec" fill-rule="evenodd"/></g><g><path clip-rule="evenodd" d="m346.051 276.609c45.56 10.853 81.016 47.653 89.843 93.883h58.667c-10.283-55.66-59.172-97.798-117.928-97.798-10.551.001-20.804 1.365-30.582 3.915z" fill="#75cef8" fill-rule="evenodd"/></g><g><path clip-rule="evenodd" d="m494.56 414.232h-58.429c-8.232 45.934-42.767 82.763-87.495 94.506 8.975 2.135 18.367 3.262 27.996 3.262 58.756 0 107.645-42.138 117.928-97.768z" fill="#75cef8" fill-rule="evenodd"/></g><g><path clip-rule="evenodd" d="m494.56 370.493h-235.856c-1.1 5.901-1.753 11.98-1.932 18.148-.059 1.245-.059 2.461-.059 3.707 0 7.473.684 14.768 1.991 21.884h235.856c1.308-7.117 1.991-14.412 1.991-21.884 0-7.473-.683-14.768-1.991-21.855z" fill="#75cef8" fill-rule="evenodd"/></g><g><path clip-rule="evenodd" d="m494.56 370.493h-58.667c1.397 7.295 2.11 14.797 2.11 22.507 0 7.236-.654 14.323-1.872 21.232h58.429c1.308-7.117 1.991-14.412 1.991-21.884 0-7.473-.683-14.768-1.991-21.855z" fill="#60b7ff" fill-rule="evenodd"/></g><g><path d="m164.911 0v37.952c0 4.275-3.461 7.726-7.726 7.726s-7.726-3.451-7.726-7.726v-37.952z" fill="#e5384f"/></g><g><path d="m127.845 0v37.952c0 4.275-3.461 7.726-7.726 7.726s-7.726-3.451-7.726-7.726v-37.952z" fill="#e5384f"/></g><g><path d="m90.821 0v37.952c0 4.275-3.461 7.726-7.726 7.726-4.275 0-7.726-3.451-7.726-7.726v-37.952z" fill="#e5384f"/></g><g><path d="m201.967 0v37.952c0 4.275-3.461 7.726-7.726 7.726s-7.726-3.451-7.726-7.726v-37.952z" fill="#e5384f"/></g><g><path d="m130.909 273.156h-66.126c-4.267 0-7.726-3.459-7.726-7.726s3.459-7.726 7.726-7.726h66.126c4.267 0 7.726 3.459 7.726 7.726.001 4.267-3.458 7.726-7.726 7.726z" fill="#60b7ff"/></g><g><path d="m130.909 310.105h-66.126c-4.267 0-7.726-3.459-7.726-7.726s3.459-7.726 7.726-7.726h66.126c4.267 0 7.726 3.459 7.726 7.726.001 4.266-3.458 7.726-7.726 7.726z" fill="#60b7ff"/></g><g><path d="m130.909 347.083h-66.126c-4.267 0-7.726-3.459-7.726-7.726s3.459-7.726 7.726-7.726h66.126c4.267 0 7.726 3.459 7.726 7.726.001 4.267-3.458 7.726-7.726 7.726z" fill="#60b7ff"/></g><g><path clip-rule="evenodd" d="m212.074 145.777c15.365 11.861 26.124 28.586 26.124 46.467v23.871h60.747v-23.871c0-23.634-18.813-60.582-42.232-61.739v-54.592h-60.717-138.345v35.021h118.582c10.669 0 19.764-2.283 19.764 7.591-.001 31.226-1.576 13.641 16.077 27.252z" fill="#dddaec" fill-rule="evenodd"/></g></g></svg>