<svg id="Capa_1" enable-background="new 0 0 512 512" height="512" viewBox="0 0 512 512" width="512" xmlns="http://www.w3.org/2000/svg"><g><g><path clip-rule="evenodd" d="m414.363 341.451c-30.585-23.556-34.355-124.867-34.553-166.338-5.442 5.443-14.088 8.022-23.981 8.107-9.949 19.219-51.901 57.685-64.912 96.463v24.633c0 4.394 2.381 6.208 6.378 7.228 13.493 3.458 29.451 7.342 45.58 12.416 12.075 3.798 24.264 8.249 35.602 13.72 9.127 4.366 22.195 6.634 35.886 3.771z" fill="#ce8b6b" fill-rule="evenodd"/></g><g><path clip-rule="evenodd" d="m221.073 268.6c-31.01-20.211-56.465-64.347-56.465-93.827-9.893-.085-26.957 5.783-32.399.34-.227 41.499-3.997 142.923-34.639 166.394 70.751 8.816 123.503-34.951 123.503-48.274z" fill="#ce8b6b" fill-rule="evenodd"/></g><g><path clip-rule="evenodd" d="m138.105 504.5c-24.094-56.126 3.883-109.049-15.675-177.903-8.957 4.309-17.404 9.213-24.859 14.91-15.448 11.792-26.645 26.901-29.395 46.715l-14.74 105.761c-1.134 8.306 1.616 10.517 10.318 10.517z" fill="#cbe2ff" fill-rule="evenodd"/></g><g><path clip-rule="evenodd" d="m443.814 388.222c-2.75-19.814-13.946-34.923-29.395-46.715 0-.028-.028-.028-.057-.057-7.427-5.669-15.845-10.573-24.803-14.854-17.886 71.688 11.367 124.328-15.675 177.903h74.351c8.73 0 11.48-2.211 10.318-10.517z" fill="#cbe2ff" fill-rule="evenodd"/></g><g><path clip-rule="evenodd" d="m255.995 350.323c25.313 0 46.005-20.721 46.005-46.006v-35.717c-6.661 4.337-13.719 7.965-21.004 10.658-9.042 3.345-17.007 5.046-25.001 5.046-7.965 0-15.959-1.701-25.001-5.046-7.285-2.693-14.315-6.321-21.004-10.658v35.717c0 25.285 20.72 46.006 46.005 46.006z" fill="#ffdfcf" fill-rule="evenodd"/></g><g><path clip-rule="evenodd" d="m379.781 131.941c0-68.258-55.841-124.13-123.786-124.441-67.945.312-123.786 56.183-123.786 124.441v5.244h247.572z" fill="#e29d7b" fill-rule="evenodd"/></g><g><path clip-rule="evenodd" d="m230.994 279.258c-4.337-1.587-8.589-3.543-12.727-5.754-2.806-1.502-5.556-3.146-8.277-4.904v21.657c13.748 9.269 44.531 15.307 61.539 11.906 5.074-1.871 9.099-3.033 12.557-6.52 5.074-5.159 4.195-2.013 4.195 10.658v7.824c0 4.791-.737 9.411-2.126 13.776 2.551-2.211 4.847-4.706 6.86-7.427 5.641-7.625 8.986-17.065 8.986-27.241v-24.633c-6.661 4.337-13.719 7.965-21.004 10.658-9.042 3.345-17.007 5.046-25.001 5.046-7.966 0-15.96-1.701-25.002-5.046z" fill="#ffcebf" fill-rule="evenodd"/></g><g><path clip-rule="evenodd" d="m156.161 183.22 7.937-24.633-7.937-24.633h-14.655c-3.487 0-6.718 1.219-9.297 3.231-3.685 2.863-6.094 7.37-6.094 12.359v9.694c0 6.803 2.268 12.047 6.094 15.874 5.442 5.444 14.059 8.023 23.952 8.108z" fill="#ffcebf" fill-rule="evenodd"/></g><g><path clip-rule="evenodd" d="m385.875 149.545c0-4.989-2.381-9.496-6.094-12.359-2.579-2.013-5.811-3.231-9.297-3.231h-14.655l-23.017 19.871 23.017 29.395c9.893-.085 18.538-2.665 23.981-8.107 3.827-3.827 6.066-9.071 6.066-15.874v-9.695z" fill="#ffcebf" fill-rule="evenodd"/></g><g><path clip-rule="evenodd" d="m302 268.6c31.01-20.211 53.829-55.899 53.829-85.38v-49.266c-32.087 0-107.062 1.559-139.008-31.805l-13.833-14.457c-1.502-1.502-2.041-1.502-3.543 0-12.5 20.551-14.995 46.262-43.284 46.262v49.266c0 29.48 22.818 65.169 53.829 85.38 6.69 4.337 13.719 7.965 21.004 10.658 9.042 3.345 17.036 5.046 25.001 5.046 7.994 0 15.959-1.701 25.001-5.046 7.285-2.693 14.343-6.321 21.004-10.658z" fill="#ffeee6" fill-rule="evenodd"/></g><g><path clip-rule="evenodd" d="m302 268.6c31.01-20.211 53.829-55.899 53.829-85.38v-49.266c-7.937 0-18.481.085-30.358-.255v39.203c0 29.48-22.818 65.169-53.829 85.38-6.69 4.337-13.719 7.965-21.004 10.658-9.042 3.345-17.036 5.046-25.001 5.046-2.438 0-4.904-.17-7.37-.482 4.138 2.211 8.39 4.167 12.727 5.754 9.042 3.345 17.036 5.046 25.001 5.046 7.994 0 15.959-1.701 25.001-5.046 7.285-2.693 14.343-6.321 21.004-10.658z" fill="#ffdfcf" fill-rule="evenodd"/></g><g><path clip-rule="evenodd" d="m255.995 339.24c-25.284 0-46.005-20.693-46.005-46.006 0 4.394-2.381 6.208-6.378 7.228-13.493 3.458-29.423 7.342-45.552 12.416l-11.083 69.024c-.425 2.665 2.211 4.904 4.932 4.904h208.171c2.721 0 5.357-2.239 4.932-4.904l-11.083-69.024c-16.129-5.074-32.059-8.957-45.552-12.416-3.997-1.02-6.378-2.835-6.378-7.228.001 25.313-20.691 46.006-46.004 46.006z" fill="#cbe2ff" fill-rule="evenodd"/></g><g><path clip-rule="evenodd" d="m349.026 375.75h-186.034c-2.721 0-4.932-2.211-4.932-4.932v-57.94c-12.075 3.798-24.264 8.277-35.631 13.72.142 70.668-26.447 123.478 15.675 177.903h235.78c42.122-54.425 15.534-107.235 15.675-177.903-11.338-5.443-23.527-9.921-35.631-13.72v57.94c.001 2.721-2.21 4.932-4.902 4.932z" fill="#f9f7f8" fill-rule="evenodd"/></g><g><path clip-rule="evenodd" d="m286.268 443.697c8.334-8.617 8.334-22.734 0-31.351-7.54-7.852-19.757-5.868-27.864 1.389-1.474 1.361-2.013 2.013-2.409 2.013-.397 0-.935-.652-2.409-2.013-8.079-7.257-20.296-9.241-27.864-1.389-8.334 8.617-8.334 22.734 0 31.351l3.373 3.345 24.774 24.576c1.049.822 1.587 1.304 2.126 1.304s1.077-.482 2.126-1.304l24.774-24.576z" fill="#f37c7c" fill-rule="evenodd"/></g><g><path clip-rule="evenodd" d="m352.711 312.509c-14.825-4.62-29.791-8.306-43.823-11.906-.028 0-.028 0-.057 0-.142-.057-.312-.085-.454-.142-3.997-1.02-6.378-2.835-6.378-7.228 0 10.176-3.345 19.587-8.986 27.241 1.786.454 3.628.907 5.471 1.389 9.836 2.523 20.381 5.358 31.01 8.702 8.192 2.58 16.441 5.443 24.434 8.731v-26.419c-.368-.113-.737-.227-1.105-.34-.027-.028-.084-.028-.112-.028z" fill="#bed8fb" fill-rule="evenodd"/></g><g><path clip-rule="evenodd" d="m443.814 388.222c-2.75-19.814-13.946-34.923-29.395-46.715l-.028-.028-.028-.028c-7.455-5.669-15.874-10.573-24.803-14.854-.028 11.65.68 22.791 1.672 33.562 14.797 11.65 25.455 26.476 28.147 45.751l13.719 98.589h15.137c8.73 0 11.48-2.211 10.318-10.517z" fill="#bed8fb" fill-rule="evenodd"/></g><g><path clip-rule="evenodd" d="m379.781 131.941c0-68.258-55.841-124.13-123.786-124.441-10.658.057-21.033 1.474-30.925 4.082 56.89 11.282 100.401 61.852 100.401 122.117 11.877.34 22.422.255 30.358.255h14.655c3.487 0 6.718 1.219 9.297 3.231z" fill="#ce8b6b" fill-rule="evenodd"/></g><g><path clip-rule="evenodd" d="m388.37 326.03c.312.142.652.312.992.454-.341-.142-.681-.312-.992-.454zm2.862 34.129c-.992-10.772-1.701-21.912-1.672-33.562-.397-.198-.794-.397-1.191-.567-11.027-5.187-22.762-9.496-34.44-13.153v26.419c1.531.652 3.061 1.276 4.564 1.928 2.239.992 4.45 2.013 6.633 3.033 6.86 3.317 13.408 6.945 19.445 11.055 1.842 1.219 3.628 2.494 5.357 3.827l.057.028c.425.34.851.652 1.247.992z" fill="#f0f0f0" fill-rule="evenodd"/></g><g><path d="m255.998 406.03c-11.683-8.658-26.543-8.368-35.667 1.102-11.14 11.519-11.14 30.26 0 41.778.036.037.073.074.109.111l28.146 27.921c.207.205.426.398.655.578l.318.251c1.334 1.056 3.351 2.65 6.435 2.65 3.083 0 5.102-1.596 6.437-2.651l.316-.25c.229-.18.448-.373.655-.578l28.146-27.921c.037-.036.074-.074.11-.111 11.139-11.519 11.139-30.26.019-41.759-9.105-9.484-23.969-9.778-35.679-1.121zm24.928 32.403-24.931 24.73-24.93-24.73c-5.436-5.677-5.42-15.219.057-20.882 4.658-4.835 12.439-2.718 17.416 1.731.336.311.617.579.855.808 1.314 1.257 3.301 3.157 6.602 3.157s5.288-1.9 6.603-3.158c.236-.227.516-.494.85-.803 4.997-4.447 12.782-6.566 17.43-1.727 5.467 5.654 5.482 15.196.048 20.874z"/><path d="m208.856 162.709c-4.142 0-7.5 3.357-7.5 7.5v5.783c0 4.143 3.358 7.5 7.5 7.5s7.5-3.357 7.5-7.5v-5.783c0-4.143-3.358-7.5-7.5-7.5z"/><path d="m303.134 183.492c4.143 0 7.5-3.357 7.5-7.5v-5.783c0-4.143-3.357-7.5-7.5-7.5s-7.5 3.357-7.5 7.5v5.783c0 4.143 3.357 7.5 7.5 7.5z"/><path d="m255.925 244.169c10.772 0 21.116-4.61 29.206-13.036 2.869-2.988 2.771-7.736-.216-10.604-2.988-2.87-7.735-2.771-10.604.216-5.351 5.573-12.057 8.579-18.865 8.419-6.489-.137-12.561-3.044-17.098-8.187-2.739-3.104-7.478-3.401-10.586-.662-3.106 2.74-3.402 7.479-.662 10.586 7.344 8.324 17.299 13.034 28.03 13.26.265.005.53.008.795.008z"/><path d="m465.981 492.948-14.739-105.76c-3.168-22.763-16.007-39.689-33.473-52.635-21.637-18.984-29.908-92.379-30.441-156.63 3.92-5.001 6.046-11.314 6.046-18.684v-9.694c0-6.042-2.315-11.546-6.094-15.666v-1.938c0-72.421-58.88-131.609-131.252-131.941-.011 0-.022 0-.033 0-.001 0-.001 0-.001 0-.012 0-.023 0-.034 0-72.373.332-131.251 59.521-131.251 131.941v1.937c-3.779 4.12-6.095 9.625-6.095 15.667v9.694c0 7.385 2.136 13.71 6.072 18.716-.133 14.115-.688 34.461-2.48 56.025-.197 2.694-.951 5.734.092 8.328.935 2.325 3.024 4.068 5.481 4.56 2.55.511 5.235-.36 6.999-2.272 2.003-2.172 2.007-4.969 2.244-7.746.05-.595.101-1.187.138-1.703 1.437-17.281 2.091-33.803 2.372-47.073 2.91 1.005 6.086 1.734 9.506 2.168 3.04 29.752 24.769 62.23 53.452 82.284v20.454c-.191.064-56.188 14.313-80.42 25.454-.264.013-.523.038-.779.077 4.351-11.254 7.944-25.249 10.828-42.13.697-4.083-2.047-7.958-6.13-8.655-4.079-.7-7.958 2.048-8.656 6.13-6.617 38.74-16.001 54.429-23.119 60.701-17.462 12.945-30.298 29.869-33.466 52.629l-14.743 105.783c-.538 3.942-.814 9.686 2.983 14.036 3.842 4.401 9.62 4.995 14.766 4.995h384.482c5.163 0 10.96-.595 14.8-5.01 3.792-4.359 3.497-10.103 2.945-14.042zm-75.173-174.418c-.291-.049-.587-.08-.888-.094-24.232-11.141-80.23-25.389-80.42-25.453v-20.454c28.682-20.053 50.412-52.532 53.452-82.284 3.423-.435 6.601-1.165 9.512-2.171.773 40.252 4.605 95.16 18.344 130.456zm-12.433-168.985v9.694c0 10.209-7.104 14.359-15.046 15.81v-33.595h7.154c4.278 0 7.892 3.705 7.892 8.091zm-229.714 25.504c-7.941-1.45-15.047-5.601-15.047-15.81v-9.694c0-4.386 3.614-8.091 7.892-8.091h7.155zm-8.822-48.527c2.838-61.683 53.848-111.218 116.156-111.522 62.308.304 113.318 49.838 116.156 111.521-.551-.04-20.462-.063-20.462-.063-32.778.057-101.027.189-129.45-29.494l-13.833-14.457c-.039-.041-.077-.08-.117-.119-4.43-4.43-9.718-4.43-14.148 0-.423.423-.794.895-1.105 1.406-3.322 5.461-5.902 11.081-8.397 16.516-7.888 17.179-12.737 26.144-28.479 26.144.001 0-15.77.028-16.321.068zm23.822 56.699v-42.33c20.332-3.219 27.873-19.648 34.61-34.321 1.319-2.874 2.665-5.804 4.108-8.664l9.024 9.431c31.368 32.76 98.902 34.13 135.315 34.13.545 0 1.08-.001 1.61-.001v41.756c0 33.608-32.682 75.2-69.935 89.004-8.446 3.124-15.564 4.579-22.4 4.579s-13.953-1.455-22.395-4.578c-37.255-13.806-69.937-55.398-69.937-89.006zm130.839 98.295v11.717c0 21.232-17.273 38.506-38.505 38.506-21.231 0-38.505-17.273-38.505-38.506v-11.718c3.574 1.798 7.211 3.41 10.902 4.777 10.165 3.76 18.936 5.511 27.603 5.511s17.439-1.751 27.607-5.512c3.689-1.366 7.325-2.977 10.898-4.775zm-230.746 215.484c-1.451 0-2.422-.075-3.056-.159.014-.44.059-1.036.166-1.822l14.74-105.762c3.104-22.3 18.657-38.222 39.06-50.073-.639 15.671-2.378 30.507-4.089 44.944-4.623 39.013-9.002 76.075 13.287 112.872zm78.106 0c-25.41-34.894-21.42-68.661-16.39-111.106 2.045-17.26 4.132-35.075 4.409-54.48 6.687-3.016 13.648-5.713 20.681-8.156v47.56c0 6.855 5.577 12.433 12.432 12.433h76.08c4.142 0 7.5-3.357 7.5-7.5s-3.358-7.5-7.5-7.5h-73.512v-49.827c11.843-3.556 23.473-6.513 33.907-9.165 1.737-.441 3.434-.873 5.1-1.299 6.413 22.363 27.032 38.781 51.428 38.781s45.015-16.418 51.428-38.78c1.668.426 3.365.858 5.101 1.299 10.433 2.651 22.063 5.608 33.906 9.165v49.827h-71.868c-4.143 0-7.5 3.357-7.5 7.5s3.357 7.5 7.5 7.5h74.464c6.84 0 12.404-5.577 12.404-12.433v-47.56c7.032 2.442 13.994 5.139 20.681 8.156.277 19.405 2.363 37.221 4.408 54.481 5.03 42.445 9.021 76.213-16.39 111.105h-228.269zm306.376 0h-60.109c22.289-36.796 17.91-73.858 13.288-112.87-1.711-14.438-3.45-29.274-4.089-44.946 20.403 11.851 35.956 27.774 39.06 50.074l14.74 105.765c.109.783.157 1.378.174 1.819-.638.084-1.612.158-3.064.158z"/></g></g></svg>