<svg id="_x33_0" enable-background="new 0 0 64 64" height="512" viewBox="0 0 64 64" width="512" xmlns="http://www.w3.org/2000/svg"><g><g><g><path d="m10 52.5v5.5h-8v-8h8z" fill="#b4dd7f"/></g><g><path d="m10 40.5v5.5h-8v-8h8z" fill="#b4dd7f"/></g><g><path d="m46 58-.62 2.49c-.22.89-1.02 1.51-1.94 1.51h-22.88c-.92 0-1.72-.62-1.94-1.51l-.62-2.49z" fill="#aab2bd"/></g><g><path d="m48 55v2c0 .55-.45 1-1 1h-1-28-1c-.55 0-1-.45-1-1v-2c0-.55.45-1 1-1h1 6 6 4 6 6 1c.55 0 1 .45 1 1z" fill="#ccd1d9"/></g><g><path d="m49.15 28.66c-.67.22-1.4.34-2.15.34h-6.35c-1.49 0-2.91-.49-4.07-1.37-.52.74-1.22 1.33-2 1.74-.79.41-1.67.63-2.58.63-1.82 0-3.53-.89-4.58-2.37-1.16.88-2.58 1.37-4.07 1.37h-6.35c-.75 0-1.48-.12-2.15-.34l-1.66 7.49c1.5.55 3.12.85 4.81.85v17h28v-17c1.69 0 3.31-.3 4.81-.85z" fill="#fcd770"/></g><g><path d="m25 13.86v.14c-.87 0-1.66.37-2.21.97l-.7-3.54c-.06-.29-.09-.58-.09-.86v-.41c0-1.89 1.21-3.56 3-4.16.3-1.18.97-2.18 1.87-2.88.91-.71 2.04-1.12 3.25-1.12h2.98c4.91 0 8.9 3.99 8.9 8.9 0 .73-.09 1.46-.27 2.16l-.48 1.94-.01.01c-.54-.62-1.35-1.01-2.24-1.01 0-.05 0-.1 0-.14 0-1.06-.43-2.03-1.13-2.73s-1.67-1.13-2.73-1.13h-.14-3-3-.14c-2.13 0-3.86 1.73-3.86 3.86z" fill="#b27946"/></g><g><path d="m12 18c0 1.1-.9 2-2 2-.55 0-1.05-.22-1.41-.59-.37-.36-.59-.86-.59-1.41v-4-2c0-.21-.03-.41-.09-.59.61.38 1.32.59 2.09.59.73 0 1.41-.2 2-.54z" fill="#ccd1d9"/></g><g><path d="m14 6v2c0 1.48-.8 2.77-2 3.46-.59.34-1.27.54-2 .54-.77 0-1.48-.21-2.09-.59-.1-.32-.27-.59-.5-.82s-.5-.4-.82-.5c-.38-.61-.59-1.32-.59-2.09v-2c0-2.21 1.79-4 4-4 1.1 0 2.1.45 2.83 1.17.72.73 1.17 1.73 1.17 2.83z" fill="#ccd1d9"/></g><g><path d="m56 14v4c0 .55-.22 1.05-.59 1.41-.36.37-.86.59-1.41.59-1.1 0-2-.9-2-2v-8.54c.59.34 1.27.54 2 .54s1.41-.2 2-.54v2.54z" fill="#ccd1d9"/></g><g><path d="m8 18c0 .55.22 1.05.59 1.41.36.37.86.59 1.41.59v2c0 3.12 2.03 5.76 4.85 6.66l-1.66 7.49c-5.36-1.96-9.19-7.11-9.19-13.15v-3c-1.28-1.28-2-3.02-2-4.83v-1.17c0 1.1.9 2 2 2h2c1.1 0 2-.9 2-2z" fill="#f0d0b4"/></g><g><path d="m8 12v2c0 1.1-.9 2-2 2h-2c-1.1 0-2-.9-2-2v-2c0-1.1.9-2 2-2h2c.21 0 .41.03.59.09.32.1.59.27.82.5s.4.5.5.82c.06.18.09.38.09.59z" fill="#f0d0b4"/></g><g><path d="m58 10h2c1.1 0 2 .9 2 2v2c0 1.1-.9 2-2 2h-2c-1.1 0-2-.9-2-2v-2c0-1.1.9-2 2-2z" fill="#f0d0b4"/></g><g><path d="m62 15.17c0 1.81-.72 3.55-2 4.83v3c0 6.04-3.83 11.19-9.19 13.15l-1.66-7.49c2.82-.9 4.85-3.54 4.85-6.66v-2c.55 0 1.05-.22 1.41-.59.37-.36.59-.86.59-1.41v-4c0 1.1.9 2 2 2h2c1.1 0 2-.9 2-2z" fill="#f0d0b4"/></g><g><path d="m41.12 19.12c-.54.54-1.29.88-2.12.88h-.5l.49-5.86c.01-.04.01-.09.01-.14.89 0 1.7.39 2.24 1.01.47.53.76 1.22.76 1.99 0 .83-.34 1.58-.88 2.12z" fill="#f0d0b4"/></g><g><path d="m35 25.94c.43.66.97 1.23 1.58 1.69-.52.74-1.22 1.33-2 1.74-.79.41-1.67.63-2.58.63-1.82 0-3.53-.89-4.58-2.37.61-.46 1.15-1.03 1.58-1.69.22.04.45.06.68.06h2.32 2.32c.23 0 .46-.02.68-.06z" fill="#f0d0b4"/></g><g><path d="m25.5 20-.49-5.86c-.01-.04-.01-.09-.01-.14s0-.1 0-.14c0-2.13 1.73-3.86 3.86-3.86h.14 3 3 .14c1.06 0 2.03.43 2.73 1.13s1.13 1.67 1.13 2.73v.14s0 .1-.01.14l-.49 5.86-.19 2.33c-.16 1.85-1.54 3.31-3.31 3.61-.22.04-.45.06-.68.06h-2.32-2.32c-.23 0-.46-.02-.68-.06-1.77-.3-3.15-1.76-3.31-3.61z" fill="#f0d0b4"/></g><g><path d="m25.01 14.14.49 5.86h-.5c-.83 0-1.58-.34-2.12-.88s-.88-1.29-.88-2.12c0-.79.3-1.5.79-2.03.55-.6 1.34-.97 2.21-.97 0 .05 0 .1.01.14z" fill="#f0d0b4"/></g><g><path d="m26.54 42.46 1.4-1.4c.68-.68 1.06-1.6 1.06-2.56s.38-1.88 1.06-2.56l1.94-1.94.57 2.83c.26 1.33 1.26 2.38 2.57 2.71 1.16.28 2.09 1.15 2.47 2.28l.16.49c.46-.2.96-.31 1.47-.31h.76l-.45 1.8c-.34 1.37.06 2.81 1.05 3.8l.34.34c.68.68 1.06 1.6 1.06 2.57v.04c0 .93-.37 1.82-1.03 2.48l-.97.97h-6l.92-.92c.69-.69 1.08-1.63 1.08-2.61 0-.92-.35-1.81-.97-2.49-.97-1.06-2.4-2.72-3.03-3.98-.63 1.26-2.06 2.92-3.03 3.98-.62.68-.97 1.57-.97 2.49 0 .98.39 1.92 1.08 2.61l.92.92h-6l-.97-.97c-.66-.66-1.03-1.55-1.03-2.48v-.04c0-.97.38-1.89 1.06-2.57l.34-.34c.99-.99 1.39-2.43 1.05-3.8l-.45-1.8h.76c.63 0 1.24.16 1.77.47z" fill="#ff826e"/></g><g><path d="m35.03 47.98c.62.68.97 1.57.97 2.49 0 .98-.39 1.92-1.08 2.61l-.92.92h-4l-.92-.92c-.69-.69-1.08-1.63-1.08-2.61 0-.92.35-1.81.97-2.49.97-1.06 2.4-2.72 3.03-3.98.63 1.26 2.06 2.92 3.03 3.98z" fill="#fc6e51"/></g></g><g><circle cx="35" cy="16" r="1"/><circle cx="29" cy="16" r="1"/><path d="m30 23h2c2.206 0 4-1.794 4-4h-2c0 1.103-.897 2-2 2h-2z"/><path d="m60 9h-2c-.01 0-.018.003-.028.003.636-.839 1.028-1.872 1.028-3.003v-5h-2v4h-2v-4h-2v4h-2v-4h-2v5c0 1.627.793 3.061 2 3.974v8.026c0 1.302.839 2.402 2 2.816v1.184c0 3.309-2.691 6-6 6h-6.346c-1.512 0-2.93-.591-3.99-1.615 1.448-.782 2.494-2.242 2.637-3.97l.122-1.458c2.005-.215 3.577-1.896 3.577-3.957 0-.815-.248-1.573-.668-2.206l.372-1.487c.196-.785.296-1.592.296-2.403 0-5.461-4.443-9.904-9.904-9.904h-2.973c-2.708 0-5.081 1.722-5.942 4.247-1.923.862-3.181 2.774-3.181 4.915v.403c0 .354.035.71.104 1.057l.619 3.094c-.453.649-.723 1.434-.723 2.284 0 2.061 1.572 3.742 3.577 3.957l.122 1.458c.144 1.729 1.19 3.188 2.638 3.97-1.061 1.024-2.48 1.615-3.991 1.615h-6.346c-3.309 0-6-2.691-6-6v-1.184c1.161-.414 2-1.514 2-2.816v-6.026c1.207-.914 2-2.348 2-3.974v-2c0-2.757-2.243-5-5-5s-5 2.243-5 5v2c0 .339.046.672.113 1h-1.113c-1.654 0-3 1.346-3 3v3.172c0 1.918.725 3.799 2 5.226v2.602c0 7.934 6.195 14.431 14 14.949v15.051c-1.103 0-2 .897-2 2v2c0 1.103.897 2 2 2h.22l.432 1.729c.024.094.061.181.093.271h-16.745v2h62v-2h-16.744c.032-.09.069-.178.093-.272l.431-1.728h.22c1.103 0 2-.897 2-2v-2c0-1.103-.897-2-2-2v-15.051c7.805-.518 14-7.015 14-14.949v-2.603c1.275-1.427 2-3.308 2-5.226v-3.171c0-1.654-1.346-3-3-3zm-8.816-2h5.631c-.413 1.161-1.513 2-2.815 2s-2.402-.839-2.816-2zm2.816 4c.342 0 .677-.035 1-.101v7.101c0 .552-.448 1-1 1s-1-.448-1-1v-7.101c.323.066.658.101 1 .101zm-14.405 7.899.307-3.674c.648.331 1.098.999 1.098 1.775 0 .894-.594 1.644-1.405 1.899zm-16.595-8.737c0-1.46.931-2.751 2.316-3.214l.521-.173.133-.533c.477-1.909 2.185-3.242 4.153-3.242h2.973c4.358 0 7.904 3.546 7.904 7.904 0 .646-.079 1.292-.235 1.917l-.134.534c-.225-.101-.461-.179-.705-.237-.359-2.326-2.356-4.118-4.781-4.118h-6.289c-2.425 0-4.423 1.792-4.781 4.119-.204.049-.404.106-.594.185l-.415-2.074c-.044-.217-.066-.441-.066-.665zm0 6.838c0-.777.45-1.444 1.099-1.775l.306 3.675c-.811-.256-1.405-1.006-1.405-1.9zm3.009-2.936c-.006-.07-.009-.139-.009-.209 0-1.574 1.281-2.855 2.855-2.855h6.289c1.575 0 2.856 1.281 2.856 2.855 0 .069-.003.139-.008.206l-.683 8.188c-.128 1.543-1.442 2.751-2.99 2.751h-4.639c-1.548 0-2.861-1.208-2.99-2.751zm3.672 12.936h4.639c.071 0 .139-.017.209-.02.202.261.418.508.648.739-.849.809-1.983 1.281-3.177 1.281s-2.327-.472-3.176-1.282c.23-.231.446-.477.648-.739.07.004.137.021.209.021zm-18.681-9c0 .552-.448 1-1 1s-1-.448-1-1v-5.112c.328.066.661.112 1 .112.342 0 .677-.035 1-.101zm-4-12c0-1.654 1.346-3 3-3s3 1.346 3 3v2c0 1.654-1.346 3-3 3-.459 0-.906-.11-1.313-.308-.294-.6-.778-1.085-1.378-1.378-.199-.408-.309-.855-.309-1.314zm-4 6c0-.552.448-1 1-1h2c.552 0 1 .448 1 1v2c0 .552-.448 1-1 1h-2c-.552 0-1-.448-1-1zm2 11v-3.414l-.293-.293c-.669-.669-1.161-1.498-1.441-2.394.237.059.48.101.734.101h2c.352 0 .686-.072 1-.184v1.184c0 1.302.839 2.402 2 2.816v1.184c0 3.231 1.929 6.013 4.692 7.275l-1.217 5.475c-4.409-2.082-7.475-6.559-7.475-11.75zm39.409 37.242c-.112.446-.511.758-.971.758h-22.876c-.46 0-.858-.312-.971-.757l-.311-1.243h25.44zm2.593-3.242h-30.002v-2h30zm-23.265-4.676c-.468-.469-.737-1.117-.737-1.816 0-.706.272-1.367.771-1.864l.334-.335c1.235-1.234 1.74-3.054 1.316-4.749l-.126-.506c.777.158 1.445.663 1.811 1.394l1.789-.895c-.223-.446-.516-.838-.853-1.18l.605-.605c.86-.861 1.353-2.051 1.353-3.268 0-.69.28-1.365.768-1.854l.618-.618.201 1.002c.337 1.692 1.638 3.056 3.312 3.475.738.185 1.322.697 1.637 1.376-.591.427-1.088.989-1.43 1.672l1.789.895c.365-.73 1.033-1.235 1.811-1.394l-.126.507c-.424 1.694.081 3.514 1.313 4.745l.34.342c.495.493.767 1.154.767 1.897 0 .662-.269 1.311-.737 1.779l-.677.676h-3.336c.48-.751.75-1.631.75-2.527 0-1.178-.438-2.304-1.235-3.172-1.407-1.531-2.427-2.862-2.87-3.748l-.895-1.787-.895 1.787c-.443.886-1.463 2.217-2.87 3.748-.797.868-1.235 1.994-1.235 3.172 0 .897.271 1.777.75 2.527h-3.337zm6.677.676-.627-.627c-.5-.5-.787-1.193-.787-1.9 0-.676.252-1.321.708-1.818.718-.781 1.59-1.786 2.292-2.767.702.98 1.573 1.985 2.292 2.767.456.496.708 1.142.708 1.818 0 .707-.287 1.4-.787 1.9l-.627.627zm14.586-19v19h-2.731c.473-.727.731-1.579.731-2.492 0-1.24-.48-2.404-1.351-3.272l-.34-.341c-.742-.741-1.045-1.833-.791-2.849l.763-3.046h-2.045c-.29 0-.572.036-.849.087-.56-1.253-1.651-2.183-3.002-2.522-.929-.232-1.649-.988-1.837-1.927l-.934-4.667-3.261 3.261c-.86.861-1.353 2.051-1.353 3.268 0 .69-.28 1.365-.768 1.854l-.922.922c-.488-.174-1.007-.276-1.546-.276h-2.045l.763 3.045c.254 1.017-.049 2.108-.794 2.853l-.334.334c-.874.872-1.354 2.036-1.354 3.313 0 .886.258 1.73.73 2.455h-2.73v-19h-2v1.949c-.908-.07-1.789-.229-2.636-.477l1.245-5.602c.453.081.916.13 1.391.13h6.346c1.391 0 2.721-.377 3.883-1.05 1.236 1.294 2.955 2.05 4.771 2.05s3.535-.756 4.772-2.05c1.162.673 2.491 1.05 3.883 1.05h6.345c.475 0 .938-.049 1.391-.129l1.245 5.602c-.847.247-1.728.407-2.636.476v-1.949zm14-14.414v3.414c0 5.191-3.066 9.668-7.475 11.75l-1.217-5.475c2.763-1.262 4.692-4.044 4.692-7.275v-1.184c1.161-.414 2-1.514 2-2.816v-1.184c.314.112.648.184 1 .184h2c.254 0 .497-.042.734-.101-.28.896-.771 1.725-1.441 2.394zm1-4.586h-2c-.552 0-1-.448-1-1v-2c0-.552.448-1 1-1h2c.552 0 1 .448 1 1v2c0 .552-.448 1-1 1z"/><path d="m11 52.969 2.641-2.2-1.281-1.537-1.36 1.133v-1.365h-10v10h10zm-8 4.031v-6h6v1.032l-1.938 1.616-1.354-1.354-1.414 1.414 2.646 2.646 2.06-1.719v2.365z"/><path d="m11 40.969 2.641-2.2-1.281-1.537-1.36 1.133v-1.365h-10v10h10zm-8 4.031v-6h6v1.032l-1.938 1.616-1.354-1.354-1.414 1.414 2.646 2.646 2.06-1.719v2.365z"/><path d="m51 57h10v2h-10z"/><path d="m51 53h4v2h-4z"/><path d="m57 53h4v2h-4z"/><path d="m51 49h2v2h-2z"/><path d="m55 49h2v2h-2z"/><path d="m59 49h2v2h-2z"/><path d="m51 45h10v2h-10z"/><path d="m51 41h4v2h-4z"/><path d="m57 41h4v2h-4z"/></g></g></svg>