<?xml version="1.0" encoding="utf-8"?>
<!-- Svg Vector Icons : http://www.onlinewebfonts.com/icon -->
<!DOCTYPE svg PUBLIC "-//W3C//DTD SVG 1.1//EN" "http://www.w3.org/Graphics/SVG/1.1/DTD/svg11.dtd">
<svg version="1.1" xmlns="http://www.w3.org/2000/svg" xmlns:xlink="http://www.w3.org/1999/xlink" x="0px" y="0px" viewBox="0 0 1000 1000" enable-background="new 0 0 1000 1000" xml:space="preserve">
<metadata> Svg Vector Icons : http://www.onlinewebfonts.com/icon </metadata>
<g><path d="M901.2,98.8C843.9,41.5,767.6,9.9,686.5,9.9c-81.1,0-157.3,31.6-214.7,88.9L285.6,285.1c-0.1,0.1-0.2,0.1-0.2,0.2c-0.1,0.1-0.1,0.2-0.2,0.2L98.9,471.8C41.6,529.1,10,605.4,10,686.5c0,81.1,31.6,157.3,88.9,214.7c57.3,57.3,133.6,88.9,214.7,88.9c81.1,0,157.3-31.6,214.7-88.9l372.9-372.9C1019.6,409.8,1019.6,217.2,901.2,98.8z M777.9,222.2c-50.4-50.3-132.3-50.3-182.7,0c-18.9,18.9-49.6,18.9-68.5,0c-18.9-18.9-18.9-49.6,0-68.5c88.1-88.1,231.5-88.1,319.7,0c18.9,18.9,18.9,49.6,0,68.5C827.4,241.1,796.8,241.1,777.9,222.2z M487,859.9c-46.3,46.3-107.9,71.8-173.4,71.8c-65.5,0-127.1-25.5-173.4-71.8c-95.6-95.6-95.6-251.3,0-346.9L306,347.2l346.9,346.9L487,859.9z"/></g>
</svg>