<svg id="Capa_1" enable-background="new 0 0 512 512" height="512" viewBox="0 0 512 512" width="512" xmlns="http://www.w3.org/2000/svg"><g><path d="m255.333 461.599v-196.72c0-27.598 22.435-50.05 50.01-50.05 27.57 0 50 22.452 50 50.05v33.65c0 4.754 3.383 8.878 8.045 9.807l35.799 7.14c17.674 3.53 29.93 20.34 27.899 38.269l-12.393 106.559z" fill="#fc6581"/><path d="m427.084 353.749-12.39 106.55-109.51.89v-246.36h.16c27.57 0 50 22.45 50 50.05v33.65c0 4.75 3.38 8.88 8.05 9.81l35.79 7.14c17.68 3.53 29.93 20.34 27.9 38.27z" fill="#f4425c"/><ellipse cx="305.18" cy="189.875" fill="#fbcdbe" rx="44.921" ry="44.95"/><path d="m350.1 189.879c0 24.78-20.15 44.95-44.92 44.95v-89.9c24.77 0 44.92 20.16 44.92 44.95z" fill="#fdbbab"/><path d="m271.18 332.519-11.079-102.457c-.552-5.104-3.675-9.57-8.278-11.841l-46.592-23.519c-7.578-3.825-16.82-.722-20.555 6.9-3.697 7.545-.59 16.658 6.945 20.375l39.54 19.503 11.831 109.407c-17.081 16.392-27.732 39.444-27.732 64.941 0 49.626 40.341 90 89.927 90s89.927-40.374 89.927-90c0-64.038-65.163-107.428-123.934-83.309z" fill="#004071"/><path d="m468.144 418.06c-18.789 0-34.851 11.887-41.083 28.539h-37.364c21.303-58.438-22.132-120.77-84.506-120.77v180c26.215 0 49.826-11.279 66.27-29.23h55.351c6.042 17.012 22.285 29.23 41.333 29.23 24.183 0 43.856-19.687 43.856-43.885s-19.675-43.884-43.857-43.884z" fill="#00244c"/><ellipse cx="305.187" cy="415.829" fill="#ccf8ff" rx="59.927" ry="60"/><path d="m365.11 415.829c0 33.1-26.915 60-59.92 60v-120c33.04 0 59.92 26.92 59.92 60z" fill="#b0f2ff"/><circle cx="305.187" cy="415.829" fill="#004071" r="15"/><path d="m320.19 415.829c0 8.28-6.72 15-15 15v-30c8.28 0 15 6.72 15 15z" fill="#004071"/><ellipse cx="88" cy="46.329" fill="#ffa58d" rx="42.463" ry="42.5"/><path d="m130.46 46.329c0 23.417-19.037 42.5-42.46 42.5v-85c23.41 0 42.46 19.07 42.46 42.5z" fill="#f59280"/><path d="m.21 479.597 27.769-215.457 4.937-4.362 57.478 72.229.494 3.794-41.552 153.561c-2.91 10.755-12.561 18.305-23.701 18.54-15.346.323-27.387-13.081-25.425-28.305z" fill="#84eef9"/><path d="m140.944 508.17c-13.858.096-25.366-10.673-26.19-24.507-7.066-118.712-5.883-110.988-8.515-114.44-80.372-106.328-78.734-101.222-78.263-105.053l18.872-153.53c.327-2.661 2.727-4.701 5.568-4.354 72.121 121.268 65.576 110.087 65.572 111.596l-.097 42.346c-.014 5.646.43 2.651 59.256 91.876.628.942.92 2.082.822 3.21l-11.247 129.064c-1.167 13.393-12.334 23.699-25.778 23.792z" fill="#84eef9"/><path d="m166.72 484.379c-1.17 13.39-12.33 23.7-25.78 23.79-13.85.1-25.36-10.67-26.19-24.51-7.269-112.376-5.094-109.951-8.51-114.44-6.62-8.76-12.69-16.77-18.24-24.08v-179.03c.06.1 35.023 58.584 29.99 51.8l-.1 42.32c-.01 5.64.43 2.65 59.26 91.87 1.845 2.783.995-3.384-10.43 132.28z" fill="#22e0e0"/><path d="m182.711 235.748c-97.071-27.443-95.884-24.752-97.718-28.811l-35.891-79.447c-4.043-8.884-3.41-22.663 3.871-33.215 16.532-23.958 53.059-18.892 62.953 8.115l19.383 53.731c.925 2.567 2.89 4.669 5.39 5.766l59.042 25.898c10.358 4.542 16.421 15.141 15.087 26.372-1.835 15.463-17.015 25.752-32.117 21.591z" fill="#22e0e0"/><path d="m214.83 214.159c-1.836 15.416-16.959 25.756-32.12 21.59-81.895-22.578-94.615-26.079-94.71-26.12v-130.29c12.701 2.083 23.473 10.887 27.93 23.05l19.38 53.73c.92 2.57 2.89 4.67 5.39 5.77l59.04 25.9c10.36 4.54 16.42 15.14 15.09 26.37z" fill="#22c7e0"/><ellipse cx="468.144" cy="461.944" fill="#b0f2ff" rx="13.856" ry="13.885"/></g></svg>