<svg id="Layer_1" enable-background="new 0 0 512 512" height="512" viewBox="0 0 512 512" width="512" xmlns="http://www.w3.org/2000/svg"><g><path d="m256 22c-135.31 0-245 109.69-245 245 0 33.59 6.766 65.599 19 94.745l1-.201v-13.544c0-7.72 6.28-14 14-14h11.721v-8.344c0-22.224 18.081-40.304 40.304-40.304h97.617c22.224 0 40.304 18.08 40.304 40.304v36.344h246.054l1.304-1c12.038-28.947 18.696-60.694 18.696-94 0-135.31-109.69-245-245-245z" fill="#e2e2e2"/><path d="m448 169h-80.894c-5.344 2.704-11.377 4.238-17.765 4.238h-30.681c-6.388 0-12.421-1.534-17.765-4.238h-41.895c-8.284 0-15 6.716-15 15v4.643c1.768-.416 3.607-.643 5.5-.643h169c13.233 0 24 10.767 24 24v150h20.5v-178c0-8.284-6.716-15-15-15z" fill="#acacac"/><path d="m249.5 187h24.5v-3c0-8.284 6.716-15 15-15h-30c-8.284 0-15 6.716-15 15v3.615c1.771-.398 3.609-.615 5.5-.615z" fill="#9c9c9c"/><path d="m234.946 408v101l1 2.179c6.614.536 13.302.821 20.054.821 82.373 0 155.26-40.662 199.673-103l-.673-1z" fill="#ffbd86"/><g><path d="m418.5 187h-169c-13.807 0-25 11.193-25 25v86.614c6.488 7.156 10.446 16.646 10.446 27.043v36.343h208.554v-150c0-13.807-11.193-25-25-25z" fill="#fff"/><path d="m249.5 187c-13.807 0-25 11.193-25 25v86.614c6.488 7.156 10.446 16.646 10.446 27.043v36.343h16.054v-150c0-13.807 11.193-25 25-25z" fill="#f8f6f6"/><path d="m410.72 229-44.738-59.452c-5.061 2.362-10.698 3.69-16.642 3.69h-30.68c-5.944 0-11.581-1.328-16.642-3.69l-44.738 59.452c-1.429 2.066-.872 4.904 1.232 6.276l23.252 15.162-21.577 14.378c-1.928 1.285-2.509 3.856-1.321 5.845l38.015 63.615v-136.187c0-1.78 1.447-3.227 3.227-3.227h67.785c1.779 0 3.227 1.447 3.227 3.227v136.187l38.014-63.614c1.188-1.989.607-4.56-1.32-5.845l-21.577-14.378 23.252-15.162c2.103-1.373 2.66-4.211 1.231-6.277z" fill="#eaf6ff"/><path d="m372.238 362v-163.912c0-2.4-1.945-4.345-4.345-4.345h-67.786c-2.4 0-4.345 1.946-4.345 4.345v163.912z" fill="#22b27f"/><path d="m356.834 191.136v-18.62c-2.428.468-4.931.722-7.494.722h-30.68c-2.563 0-5.066-.254-7.494-.722v18.62c0 1.44-1.167 2.607-2.607 2.607h-4.975l28.201 45.475c1.02 1.644 3.412 1.644 4.431 0l28.201-45.475h-4.975c-1.441 0-2.608-1.167-2.608-2.607z" fill="#ffbd86"/><path d="m329.142 193.743c1.44 0 2.607-1.167 2.607-2.607v-17.898h-13.09c-2.563 0-5.066-.254-7.494-.722v18.62c0 1.44-1.167 2.607-2.607 2.607h-4.976l28.201 45.475c1.02 1.644 3.412 1.644 4.431 0l8.076-13.023-17.503-28.224c-1.142-1.844.185-4.228 2.355-4.228z" fill="#f6a96c"/><g><g><path d="m359 29.415v33.131h15.833c7.72 0 14 6.28 14 14v14.011h9.05c3.81 0 7.314 1.306 10.116 3.476v-46.435c0-19.352-15.688-35.041-35.04-35.041h-19.518c3.491 4.72 5.559 10.551 5.559 16.858z" fill="#fb8801"/><path d="m270.116 90.557h9.05v-14.011c0-7.72 6.28-14 14-14h66.834v-33.131c0-16.246-13.17-29.415-29.415-29.415h-41.17c-16.245 0-29.415 13.169-29.415 29.415v64.618c2.802-2.17 6.306-3.476 10.116-3.476z" fill="#fe9901"/><path d="m270.116 90.557h9.05v-14.011c0-6.629 4.636-12.185 10.833-13.625v-33.506c.001-16.246 13.171-29.415 29.416-29.415h-30c-16.245 0-29.415 13.169-29.415 29.415v64.618c2.802-2.17 6.306-3.476 10.116-3.476z" fill="#fb8801"/></g><g fill="#ffbd86"><path d="m279.167 133.744v-44.187h-9.05c-9.702 0-17.567 7.865-17.567 17.567v12.854c0 9.702 7.865 17.567 17.567 17.567h9.237c-.121-1.251-.187-2.518-.187-3.801z"/><path d="m397.884 89.557h-9.05v44.188c0 1.283-.067 2.55-.187 3.802h9.237c9.702 0 17.567-7.865 17.567-17.567v-12.854c0-9.704-7.865-17.569-17.567-17.569z"/></g><g><path d="m278.166 76.546v57.199c0 22.364 18.13 40.493 40.493 40.493h30.68c22.364 0 40.493-18.13 40.493-40.493v-57.199c0-8.284-6.716-15-15-15h-81.667c-8.283 0-14.999 6.716-14.999 15z" fill="#fed2a4"/></g><g><g><g><path d="m305.576 108.785c-4.142 0-7.5-3.357-7.5-7.5v-8.864c0-4.143 3.358-7.5 7.5-7.5s7.5 3.357 7.5 7.5v8.864c0 4.143-3.358 7.5-7.5 7.5z" fill="#ea9b58"/></g><g><path d="m361.641 108.785c-4.142 0-7.5-3.357-7.5-7.5v-8.864c0-4.143 3.358-7.5 7.5-7.5s7.5 3.357 7.5 7.5v8.864c0 4.143-3.358 7.5-7.5 7.5z" fill="#ea9b58"/></g></g><g><path d="m335.503 157.883c-8.444 0-16.888-3.214-23.316-9.642-2.929-2.929-2.929-7.678 0-10.606 2.929-2.93 7.678-2.929 10.606-.001 7.008 7.009 18.412 7.008 25.419 0 2.929-2.928 7.678-2.928 10.606 0 2.929 2.93 2.929 7.678 0 10.607-6.427 6.428-14.871 9.642-23.315 9.642z" fill="#ea9b58"/></g><g><path d="m339.719 127.562h-5.719c-5.712 0-10.359-4.647-10.359-10.359v-13.344c0-4.143 3.358-7.5 7.5-7.5s7.5 3.357 7.5 7.5v8.703h1.078c4.142 0 7.5 3.357 7.5 7.5s-3.358 7.5-7.5 7.5z" fill="#ea9b58"/></g></g></g></g><g><path d="m419.784 362v-128.179c0-1.865-1.512-3.376-3.376-3.376h-104.032c-1.865 0-3.376 1.511-3.376 3.376v128.179z" fill="#0182fc"/><path d="m330 362v-128.179c0-1.865 1.512-3.376 3.376-3.376h-21c-1.865 0-3.376 1.511-3.376 3.376v128.179z" fill="#0172fb"/><g><path d="m343.231 241.891h42.322c1.865 0 3.376-1.512 3.376-3.376v-13.628c0-1.865-1.512-3.376-3.376-3.376h-42.322c-1.865 0-3.376 1.512-3.376 3.376v13.628c0 1.864 1.512 3.376 3.376 3.376z" fill="#9c9c9c"/></g><g><path d="m360 238.515v-13.628c0-1.865 1.512-3.376 3.376-3.376h-20.145c-1.865 0-3.376 1.511-3.376 3.376v13.628c0 1.865 1.512 3.376 3.376 3.376h20.145c-1.864 0-3.376-1.512-3.376-3.376z" fill="#838383"/></g><path d="m393.083 344.878c0 3.106 1.944 5.775 4.672 6.865-2.867 1.145-4.867 4.032-4.657 7.338.067 1.056.368 2.039.841 2.919h34.559c2.245-2.336 3.632-5.503 3.632-8.999v-29.976c0-7.179-5.82-12.999-12.999-12.999h-18.42c-3.941 0-7.365 2.986-7.614 6.919-.209 3.306 1.791 6.193 4.657 7.338-2.729 1.09-4.672 3.759-4.672 6.865s1.944 5.775 4.672 6.865c-2.728 1.091-4.671 3.759-4.671 6.865z" fill="#fed2a4"/><path d="m393.083 344.878c0 3.106 1.944 5.775 4.672 6.865-2.867 1.145-4.867 4.032-4.657 7.338.067 1.056.368 2.039.841 2.919h16.645c-2.247-2.333-3.631-5.502-3.631-8.999v-29.976c0-7.04 5.601-12.759 12.588-12.978-.138-.004-.272-.021-.41-.021h-18.42c-3.941 0-7.365 2.986-7.614 6.919-.209 3.306 1.791 6.193 4.657 7.338-2.729 1.09-4.672 3.759-4.672 6.865s1.944 5.775 4.672 6.865c-2.728 1.091-4.671 3.759-4.671 6.865z" fill="#ffbd86"/></g><path d="m234.946 361v48h220.727c10.582-14.853 19.538-30.942 26.632-48z" fill="#f6a96c"/><path d="m275 379v-18h-40.054v48h220.727c4.586-6.438 8.847-13.12 12.803-20h-183.476c-5.523 0-10-4.477-10-10z" fill="#ea9b58"/><g><path d="m154.076 263.986v11.283c0 2.993-.445 5.95-1.322 8.788l-.4 1.295h27.249c.003-.154.012-.307.012-.461v-21.351c-1.981.291-4.001.447-6.053.447h-19.486z" fill="#ffbd86"/><path d="m194.642 284.353h-97.617c-22.812 0-41.304 18.492-41.304 41.304v8.343h128.279c7.72 0 14 6.28 14 14v157.058c12.314 2.99 24.983 5.071 37.946 6.121v-185.523c0-22.811-18.492-41.303-41.304-41.303z" fill="#8ac9fe"/><g><path d="m97 333v-7.344c0-7.117 1.801-13.814 4.971-19.66h-14.565c-8.064 0-15.398-3.11-20.879-8.191-6.71 7.344-10.805 17.119-10.805 27.851v7.344z" fill="#60b7ff"/></g><g><path d="m180.444 65.752h-51.092c-40.136 0-72.674 32.537-72.674 72.673v136.844c0 16.97 13.757 30.728 30.728 30.728h36.943c16.97 0 30.728-13.757 30.728-30.728v-10.283l.957-1.163v-41.376c0-2.475-2.052-4.488-4.573-4.488h-2.112c-8.624 0-15.616-6.991-15.616-15.616v-20.443c0-8.624 6.991-15.616 15.616-15.616h2.067c1.507.001 2.704 1.2 2.704 2.671v19.056c0 1.077.425 2.067 1.197 2.787.713.665 1.679 1.047 2.652 1.047 1.013 0 1.971-.406 2.699-1.14l51.485-52.015c.469-.473.987-.573 1.339-.573.951 0 1.935.718 1.935 1.919v12.389c12.058-4.858 20.573-16.66 20.573-30.458v-.658c0-30.684-24.873-55.557-55.556-55.557z" fill="#883f2e"/></g><g><path d="m88 275.269v-136.844c0-40.136 32.537-72.673 72.674-72.673h-31.322c-40.137 0-72.674 32.537-72.674 72.673v136.844c0 16.97 13.757 30.728 30.728 30.728h31.322c-16.971 0-30.728-13.757-30.728-30.728z" fill="#6d3326"/></g><g><path d="m233.55 215.64-16.243-22.179c-.601-.82-.924-1.81-.924-2.827v-50.597c0-2.565-3.107-3.842-4.911-2.02l-51.484 52.013c-1.804 1.823-4.911.545-4.911-2.02v-19.056c0-2.002-1.622-3.625-3.624-3.627h-.038-2.067c-9.115 0-16.573 7.458-16.573 16.573v20.443c0 9.115 7.458 16.573 16.573 16.573h2.067.038c1.993-.002 3.624 1.627 3.624 3.62v42.45h18.486c21.722 0 39.655-16.176 42.435-37.138.315-2.375 2.338-4.148 4.734-4.148h8.731c4.148 0 6.538-4.713 4.087-8.06z" fill="#fed2a4"/></g><g><g><g><path d="m194.477 199.146c-4.142 0-7.5-3.357-7.5-7.5v-9.094c0-4.143 3.358-7.5 7.5-7.5s7.5 3.357 7.5 7.5v9.094c0 4.142-3.358 7.5-7.5 7.5z" fill="#ea9b58"/></g></g></g></g><g><path d="m184 333h-139c-8.284 0-15 6.716-15 15v13.745c29.898 71.232 92.489 125.341 169 143.574v-157.319c0-8.284-6.716-15-15-15z" fill="#9c9c9c"/></g><g><path d="m70 348c0-8.284 6.716-15 15-15h-40c-8.284 0-15 6.716-15 15v13.745c9.942 23.688 23.518 45.466 40 64.676z" fill="#838383"/></g></g></svg>