<svg height="512" viewBox="0 0 512 512" width="512" xmlns="http://www.w3.org/2000/svg"><g id="Two_Tone" data-name="Two Tone"><path d="m24 128h464a0 0 0 0 1 0 0v344a16 16 0 0 1 -16 16h-432a16 16 0 0 1 -16-16v-344a0 0 0 0 1 0 0z" fill="#90caf9"/><path d="m40 56h432a16 16 0 0 1 16 16v64a0 0 0 0 1 0 0h-464a0 0 0 0 1 0 0v-64a16 16 0 0 1 16-16z" fill="#2096f3"/><g fill="#1665c0"><rect height="64" rx="16" width="32" x="72" y="24"/><rect height="64" rx="16" width="32" x="296" y="24"/><rect height="64" rx="16" width="32" x="184" y="24"/><rect height="64" rx="16" width="32" x="408" y="24"/></g><circle cx="360" cy="408" fill="#ffd54f" r="32"/><path d="m176 328h32l-8 32h-16z" fill="#ffd54f"/><path d="m168.11 332c.882 16.242 7.115 29.074 15.938 33.913a59.991 59.991 0 0 0 119.952-1.913v-100a24 24 0 0 1 48 0v104.805a40 40 0 1 0 16 0v-104.805a40 40 0 0 0 -80 0v100a44 44 0 0 1 -87.953 1.856c8.885-4.941 15.118-18.009 15.87-34.487 32.505-12.469 56.083-48.708 56.083-91.369v-56a8 8 0 0 0 -8-8h-24v16h16v48c0 44.112-29.121 80-64.915 80-16.617 0-32.265-7.983-44.06-22.479-12.268-15.079-19.025-35.506-19.025-57.521v-48h16v-16h-24a8 8 0 0 0 -8 8v56c0 25.682 8.031 49.7 22.615 67.619 9.412 11.569 20.885 19.847 33.495 24.381zm191.89 52a24 24 0 1 1 -24 24 24.028 24.028 0 0 1 24-24zm-168.915-48a68.831 68.831 0 0 0 8.395-.515 38.1 38.1 0 0 1 -3.322 11.565c-2.045 4.09-3.881 4.95-4.158 4.95s-2.113-.86-4.158-4.95a37.9 37.9 0 0 1 -3.3-11.369c2.164.208 4.346.319 6.543.319z" fill="#0d47a0"/><path d="m472 48h-24v-8a24 24 0 0 0 -48 0v8h-64v-8a24 24 0 0 0 -48 0v8h-64v-8a24 24 0 0 0 -48 0v8h-64v-8a24 24 0 0 0 -48 0v8h-24a24.028 24.028 0 0 0 -24 24v400a24.028 24.028 0 0 0 24 24h432a24.028 24.028 0 0 0 24-24v-400a24.028 24.028 0 0 0 -24-24zm-56-8a8 8 0 0 1 16 0v32a8 8 0 0 1 -16 0zm-112 0a8 8 0 0 1 16 0v32a8 8 0 0 1 -16 0zm-112 0a8 8 0 0 1 16 0v32a8 8 0 0 1 -16 0zm-112 0a8 8 0 0 1 16 0v32a8 8 0 0 1 -16 0zm400 432a8.009 8.009 0 0 1 -8 8h-432a8.009 8.009 0 0 1 -8-8v-328h448zm0-344h-448v-56a8.009 8.009 0 0 1 8-8h24v8a24 24 0 0 0 48 0v-8h64v8a24 24 0 0 0 48 0v-8h64v8a24 24 0 0 0 48 0v-8h64v8a24 24 0 0 0 48 0v-8h24a8.009 8.009 0 0 1 8 8z" fill="#0d47a0"/></g></svg>