<svg id="_x33_0" enable-background="new 0 0 64 64" height="512" viewBox="0 0 64 64" width="512" xmlns="http://www.w3.org/2000/svg"><g><g><g><path d="m38 62h-34c-1.105 0-2-.895-2-2v-56c0-1.105.895-2 2-2h34c1.105 0 2 .895 2 2v56c0 1.105-.895 2-2 2z" fill="#969faa"/></g><g><path d="m16.27 35.16-2.27.51-.74.16c-3.29.73-6.01 3.04-7.26 6.17v-32h26v10.67c0 .09.01.18.03.27l-.05.01c-.31-1.4-.55-1.89-.86-2.33-.56-.8-1.36-1.43-2.32-1.78l-6.58-2.39c-.81-.3-1.66-.45-2.52-.45-1.16 0-2.3.28-3.31.78-1.01.51-1.91 1.25-2.61 2.18l-.78 1.04c-.83 0-1.58.34-2.12.88s-.88 1.29-.88 2.12c0 1 .25 2.2.5 3.13.25.94.5 1.63.5 1.63l.01.01c-.62.53-1.01 1.34-1.01 2.23 0 .83.34 1.58.88 2.12s1.29.88 2.12.88h1.07.01c.23 1.65 1.03 3.1 2.2 4.15z" fill="#69d6f4"/></g><g><path d="m33.33 22c.42 0 .82-.2 1.07-.53l1.6-2.14v22.67c-1.25-3.13-3.97-5.44-7.26-6.17l-.74-.16-2.27-.51-.01-.01c1.17-1.05 1.97-2.5 2.2-4.15h.01 1.07c.83 0 1.58-.34 2.12-.88s.88-1.29.88-2.12c0-.89-.38-1.69-1-2.23l.85-3.19c.1-.39.15-.78.15-1.18 0-.15-.01-.3-.02-.45l.05-.01c.28.72.75 1.06 1.3 1.06z" fill="#69d6f4"/></g><g><path d="m16 54h10v4h-10z" fill="#e6e9ed"/></g><g><path d="m13 25c-.77 0-1.46.29-1.99.77l-.01-.01s-.25-.69-.5-1.63c-.25-.93-.5-2.13-.5-3.13 0-.83.34-1.58.88-2.12s1.29-.88 2.12-.88l.78-1.04c.7-.93 1.6-1.67 2.61-2.18 1.01-.5 2.15-.78 3.31-.78.86 0 1.71.15 2.52.45l6.58 2.39c.96.35 1.76.98 2.32 1.78.31.44.55.93.86 2.33.01.15.02.3.02.45 0 .4-.05.79-.15 1.18l-.85 3.19c-.53-.48-1.23-.77-2-.77h-1c-2.5 0-5.25-1-7.38-2-2.12-1-3.62-2-3.62-2-1.41.95-2.41 2.38-2.81 4z" fill="#b27946"/></g><g><path d="m28.74 35.83-.74-.16-2.27-.51-4.73 6.84-4.73-6.84-2.27.51-.74.16c-3.29.73-6.01 3.04-7.26 6.17v8h30v-8c-1.25-3.13-3.97-5.44-7.26-6.17z" fill="#e6e9ed"/></g><g><circle cx="28" cy="48" fill="#fcd770" r="2"/></g><g><path d="m21 42-4.73-6.84.01-.01c1.24 1.16 2.9 1.85 4.72 1.85s3.48-.69 4.72-1.85l.01.01z" fill="#f0d0b4"/></g><g><path d="m31.12 30.12c-.54.54-1.29.88-2.12.88h-1.07-.01c.06-.33.08-.66.08-1v-5h1c.77 0 1.47.29 2 .77.62.54 1 1.34 1 2.23 0 .83-.34 1.58-.88 2.12z" fill="#f0d0b4"/></g><g><path d="m28 25v5c0 .34-.02.67-.08 1-.23 1.65-1.03 3.1-2.2 4.15-1.24 1.16-2.9 1.85-4.72 1.85s-3.48-.69-4.72-1.85c-1.17-1.05-1.97-2.5-2.2-4.15-.06-.33-.08-.66-.08-1v-3.39c0-.55.07-1.09.19-1.61.4-1.62 1.4-3.05 2.81-4 0 0 1.5 1 3.62 2 2.13 1 4.88 2 7.38 2z" fill="#f0d0b4"/></g><g><path d="m14 30c0 .34.02.67.08 1h-.01-1.07c-.83 0-1.58-.34-2.12-.88s-.88-1.29-.88-2.12c0-.89.39-1.7 1.01-2.23.53-.48 1.22-.77 1.99-.77h1.19c-.12.52-.19 1.06-.19 1.61z" fill="#f0d0b4"/></g><g><path d="m62 8v8c0 1.1-.9 2-2 2h-20-3l-1 1.33-1.6 2.14c-.25.33-.65.53-1.07.53-.55 0-1.02-.34-1.3-1.06-.02-.09-.03-.18-.03-.27v-10.67-2c0-1.1.9-2 2-2h6 20c1.1 0 2 .9 2 2z" fill="#ffeaa7"/></g><g><circle cx="56" cy="12" fill="#ff826e" r="2"/></g><g><circle cx="48" cy="12" fill="#ff826e" r="2"/></g><g><circle cx="40" cy="12" fill="#ff826e" r="2"/></g><g><path d="m62 25.33v20.67c0 1.1-.9 2-2 2h-18c-1.1 0-2-.9-2-2v-16c0-1.1.9-2 2-2h15l2.6-3.47c.25-.33.65-.53 1.07-.53.73 0 1.33.6 1.33 1.33z" fill="#e6e9ed"/></g><g><path d="m56 37v2c0 .55-.45 1-1 1h-3v3c0 .55-.45 1-1 1h-2c-.55 0-1-.45-1-1v-3h-3c-.55 0-1-.45-1-1v-2c0-.55.45-1 1-1h3v-3c0-.55.45-1 1-1h2c.55 0 1 .45 1 1v3h3c.55 0 1 .45 1 1z" fill="#fcd770"/></g></g><g><path d="m24 5h2v2h-2z"/><path d="m16 5h6v2h-6z"/><path d="m15 59h12v-6h-12zm2-4h8v2h-8z"/><path d="m45 41h2v2c0 1.103.897 2 2 2h2c1.103 0 2-.897 2-2v-2h2c1.103 0 2-.897 2-2v-2c0-1.103-.897-2-2-2h-2v-2c0-1.103-.897-2-2-2h-2c-1.103 0-2 .897-2 2v2h-2c-1.103 0-2 .897-2 2v2c0 1.103.897 2 2 2zm0-4h4v-4h2v4h4v2h-4v4h-2v-4l-4-.003z"/><path d="m60 19c1.654 0 3-1.346 3-3v-8c0-1.654-1.346-3-3-3h-19v-1c0-1.654-1.346-3-3-3h-34c-1.654 0-3 1.346-3 3v56c0 1.654 1.346 3 3 3h34c1.654 0 3-1.346 3-3v-11.184c.314.112.648.184 1 .184h18c1.654 0 3-1.346 3-3v-20.667c0-1.286-1.047-2.333-2.333-2.333-.73 0-1.429.349-1.867.933l-2.3 3.067h-14.5c-.352 0-.686.072-1 .184v-8.184zm1-11v8c0 .551-.448 1-1 1h-23.5l-2.899 3.866c-.173.231-.602.088-.601-.2v-12.666c0-.551.448-1 1-1h26c.552 0 1 .449 1 1zm-48 18.605v3.395c-1.103 0-2-.897-2-2s.897-2 2-2h.037c-.015.201-.037.401-.037.605zm.46-2.605h-.46c-.503 0-.979.104-1.423.274-.264-.92-.577-2.225-.577-3.274 0-1.103.897-2 2-2h.5l1.081-1.442c1.201-1.602 3.114-2.558 5.116-2.558.747 0 1.482.129 2.186.385l6.578 2.392c1.518.552 2.539 2.009 2.539 3.625 0 .315-.039.629-.111.919l-.519 1.936c-.429-.158-.887-.257-1.37-.257h-1c-4.633 0-10.388-3.794-10.445-3.833l-.556-.369-.554.37c-1.405.937-2.433 2.289-2.985 3.832zm15.54 2c1.103 0 2 .897 2 2s-.897 2-2 2zm-2 4c0 3.309-2.691 6-6 6s-6-2.691-6-6v-3.395c0-1.709.755-3.309 2.047-4.393 1.563.955 5.874 3.378 9.953 3.741zm-6 8c.574 0 1.134-.064 1.674-.179l-1.674 2.421-1.674-2.421c.54.115 1.1.179 1.674.179zm7.96-3.144-1.386-.308c.53-.763.924-1.624 1.163-2.548h.263c2.206 0 4-1.794 4-4 0-.946-.344-1.806-.896-2.491l.691-2.577c.174.041.352.068.538.068.633 0 1.231-.273 1.667-.723v16.208c-1.554-1.802-3.652-3.098-6.04-3.629zm2.04-17.837c-.538-.475-1.156-.868-1.855-1.122l-6.578-2.392c-.924-.335-1.889-.505-2.87-.505-2.629 0-5.14 1.255-6.716 3.358l-.508.676c-1.956.258-3.473 1.939-3.473 3.966 0 1.609.565 3.587.871 4.538-.537.681-.871 1.529-.871 2.462 0 2.206 1.794 4 4 4h.263c.239.924.633 1.784 1.163 2.548l-1.386.308c-2.388.531-4.486 1.827-6.04 3.629v-27.485h24zm-24 25.201c1.091-2.592 3.302-4.523 6-5.276v6.157c-2.279.465-4 2.485-4 4.899v1h-2zm4 5.78c0-1.654 1.346-3 3-3s3 1.346 3 3v1h-6zm4-4.899v-6.632l.832-.185 5.168 7.474 5.168-7.475.832.186v8.716c-1.161.414-2 1.514-2 2.816 0 .352.072.686.184 1h-6.184v-1c0-2.415-1.721-4.435-4-4.9zm12 4.899c0-.551.448-1 1-1s1 .449 1 1-.448 1-1 1-1-.449-1-1zm2-2.816v-8.24c2.698.753 4.909 2.684 6 5.276v6.78h-4.184c.112-.314.184-.648.184-1 0-1.302-.839-2.402-2-2.816zm13-16.184h15.5l2.899-3.866c.171-.232.601-.09.601.199v20.667c0 .551-.448 1-1 1h-18c-.552 0-1-.449-1-1v-16c0-.551.448-1 1-1zm-3 31c0 .551-.448 1-1 1h-34c-.552 0-1-.449-1-1v-56c0-.551.448-1 1-1h34c.552 0 1 .449 1 1v1h-5c-1.654 0-3 1.346-3 3v1h-26v42h32v-31.333l.5-.667h1.5z"/><path d="m56 15c1.654 0 3-1.346 3-3s-1.346-3-3-3-3 1.346-3 3 1.346 3 3 3zm0-4c.552 0 1 .449 1 1s-.448 1-1 1-1-.449-1-1 .448-1 1-1z"/><path d="m48 15c1.654 0 3-1.346 3-3s-1.346-3-3-3-3 1.346-3 3 1.346 3 3 3zm0-4c.552 0 1 .449 1 1s-.448 1-1 1-1-.449-1-1 .448-1 1-1z"/><path d="m40 15c1.654 0 3-1.346 3-3s-1.346-3-3-3-3 1.346-3 3 1.346 3 3 3zm0-4c.552 0 1 .449 1 1s-.448 1-1 1-1-.449-1-1 .448-1 1-1z"/></g></g></svg>