<svg id="Layer_1" enable-background="new 0 0 512 512" height="512" viewBox="0 0 512 512" width="512" xmlns="http://www.w3.org/2000/svg"><g><g><g><path d="m184 16c-61.856 0-112 50.144-112 112v192h112v-32h64c26.51 0 48-21.49 48-48v-112c0-61.856-50.144-112-112-112z" fill="#fab991"/></g><g><path d="m248 320h-176c-26.51 0-48 21.49-48 48v128h272v-128c0-26.51-21.49-48-48-48z" fill="#289bc3"/></g><g><path d="m72 320c-26.51 0-48 21.49-48 48v128h96v-128c0-26.51-21.49-48-48-48z" fill="#00d2d2"/></g><g><path d="m136 320c26.51 0 48 21.49 48 48v8c0 13.255 10.745 24 24 24 13.255 0 24-10.745 24-24v-8c0-26.51-21.49-48-48-48z" fill="#f0915a"/></g><g><path d="m24 464h96v32h-96z" fill="#fab991"/></g><g><path d="m499.313 396.686c-6.248-6.249-16.379-6.248-22.627 0l-38.627 38.627c-3.022 3.022-7.041 4.687-11.314 4.687h-2.745-40c-4.418 0-8 3.582-8 8v48h32v-8c0-8.837 7.164-16 16-16h2.745c12.82 0 24.874-4.993 33.941-14.059l38.627-38.627c6.249-6.249 6.249-16.379 0-22.628z" fill="#f0915a"/></g><g><path d="m412 400h-36c-17.673 0-32 14.327-32 32v64h32v-48c0-4.418 3.582-8 8-8h28c11.046 0 20-8.954 20-20 0-11.046-8.954-20-20-20z" fill="#fab991"/></g><g><path d="m184 288h-80c-17.673 0-32 14.327-32 32h112z" fill="#f0915a"/></g><g><circle cx="264" cy="160" fill="#463c4b" r="10.667"/></g><g><circle cx="221.333" cy="160" fill="#463c4b" r="10.667"/></g><g><circle cx="40" cy="144" fill="#463c4b" r="32"/></g><g><path d="m216 16h-48c-61.856 0-112 50.144-112 112v112c0 17.673 14.327 32 32 32h32c17.673 0 32-14.327 32-32-22.091 0-40-17.909-40-40 0-22.091 17.909-40 40-40 17.673 0 32-14.327 32-32h112c8.837 0 16-7.163 16-16 0-53.019-42.981-96-96-96z" fill="#463c4b"/></g><g><path d="m152 160v80c-22.091 0-40-17.909-40-40s17.908-40 40-40z" fill="#f0915a"/></g><g><path d="m256 224c-8.837 0-16-7.163-16-16v-34.667c17.673 0 32 14.327 32 32v2.667c0 8.837-7.164 16-16 16z" fill="#f0915a"/></g><g><path d="m232 242.667h32c0 7.364-5.97 13.333-13.333 13.333h-5.333c-7.365 0-13.334-5.97-13.334-13.333z" fill="#463c4b"/></g></g><g><circle cx="424" cy="72" fill="#00d2d2" r="56"/></g><g><circle cx="424" cy="200" fill="#a5c3dc" r="56"/></g><g><circle cx="424" cy="328" fill="#ff6e91" r="56"/></g><g><circle cx="404" cy="64" fill="#463c4b" r="9.333"/></g><g><circle cx="444" cy="64" fill="#463c4b" r="9.333"/></g><g><circle cx="404" cy="192" fill="#463c4b" r="9.333"/></g><g><circle cx="444" cy="192" fill="#463c4b" r="9.333"/></g><g><path d="m424 112c13.255 0 24-10.745 24-24h-48c0 13.255 10.745 24 24 24z" fill="#463c4b"/></g><g><path d="m440 228h-32c-2.209 0-4-1.791-4-4s1.791-4 4-4h32c2.209 0 4 1.791 4 4s-1.791 4-4 4z" fill="#463c4b"/></g><g><path d="m407.997 356c-.835 0-1.676-.26-2.396-.799-1.768-1.324-2.127-3.831-.803-5.599 6.095-8.137 12.548-12.264 19.181-12.269h.01c6.635 0 13.098 4.126 19.209 12.264 1.327 1.766.971 4.274-.796 5.601-1.765 1.326-4.273.97-5.601-.796-4.52-6.017-8.83-9.069-12.813-9.069-.002 0-.003 0-.005 0-3.979.002-8.279 3.052-12.783 9.064-.784 1.05-1.986 1.603-3.203 1.603z" fill="#463c4b"/></g><g><circle cx="404" cy="320" fill="#463c4b" r="9.333"/></g><g><circle cx="444" cy="320" fill="#463c4b" r="9.333"/></g></g></svg>