<svg id="Layer_35" enable-background="new 0 0 64 64" height="512" viewBox="0 0 64 64" width="512" xmlns="http://www.w3.org/2000/svg"><path d="m18 47.09-2.74 1.12h-.01l-.01-.02c-1.24-.71-2.3-1.51-3.05-2.13s-1.19-1.06-1.19-1.06c3.16-2.53 5-6.36 5-10.4v-16.6c0-4.42 1.79-8.42 4.68-11.32 2.9-2.89 6.9-4.68 11.32-4.68 8.84 0 16 7.16 16 16v16.6c0 2.02.46 3.99 1.32 5.77.85 1.77 2.1 3.37 3.68 4.63 0 0-1.77 1.77-4.26 3.21l-2.74-1.12-4-1.64-1.14-.46-2.37-.97c-.57-.24-1.07-.59-1.47-1.04-.64-.72-1.02-1.66-1.02-2.67v-1.24c1.84-1.19 3.42-2.71 4.69-4.46 2.1-2.92 3.31-6.49 3.31-10.26v-2.35c-2.62 0-5.21-.36-7.71-1.05s-4.91-1.72-7.15-3.07l-3.14-1.88c-3.58 1.19-6 4.55-6 8.32v.03c0 6.04 3.09 11.54 8 14.72v1.24c0 1.01-.38 1.95-1.02 2.67-.4.45-.9.8-1.47 1.04l-2.37.97-1.14.46z" fill="#656d78"/><g fill="#e6e9ed"><path d="m18 47.09v8.91h-.56c-.86 0-1.62.55-1.9 1.37l-1.54 4.63h-8c0-6.05 3.66-11.49 9.25-13.79h.01z"/><path d="m42 45.45v10.55h-20v-10.55l1.14-.46 1.7 2.98c.72 1.26 2.05 2.03 3.49 2.03 1.07 0 2.09-.42 2.85-1.18l.82-.82.82.82c.76.76 1.78 1.18 2.85 1.18 1.44 0 2.77-.77 3.49-2.03l1.7-2.98z"/><path d="m48.74 48.21c2.8 1.15 5.12 3.08 6.73 5.49 1.61 2.4 2.53 5.28 2.53 8.3h-8l-1.54-4.63c-.28-.82-1.04-1.37-1.9-1.37h-.56v-8.91z"/></g><path d="m48.46 57.37 1.54 4.63h-36l1.54-4.63c.28-.82 1.04-1.37 1.9-1.37h.56 4 20 4 .56c.86 0 1.62.55 1.9 1.37z" fill="#fcd770"/><path d="m46 47.09v8.91h-4v-10.55z" fill="#ffc729"/><path d="m22 45.45v10.55h-4v-8.91z" fill="#ffc729"/><path d="m40.86 44.99-1.7 2.98c-.72 1.26-2.05 2.03-3.49 2.03-1.07 0-2.09-.42-2.85-1.18l-.82-.82 5.02-5.02c.4.45.9.8 1.47 1.04z" fill="#ff826e"/><path d="m32 48-.82.82c-.76.76-1.78 1.18-2.85 1.18-1.44 0-2.77-.77-3.49-2.03l-1.7-2.98 2.37-.97c.57-.24 1.07-.59 1.47-1.04z" fill="#ff826e"/><path d="m36 40.31c0 1.01.38 1.95 1.02 2.67l-5.02 5.02-5.02-5.02c.64-.72 1.02-1.66 1.02-2.67v-1.24c1.23.8 2.57 1.45 4 1.93 1.43-.48 2.77-1.13 4-1.93z" fill="#f0d0b4"/><path d="m36.29 20.95c2.5.69 5.09 1.05 7.71 1.05v2.35c0 3.77-1.21 7.34-3.31 10.26-1.27 1.75-2.85 3.27-4.69 4.46-1.23.8-2.57 1.45-4 1.93-1.43-.48-2.77-1.13-4-1.93-4.91-3.18-8-8.68-8-14.72v-.03c0-3.77 2.42-7.13 6-8.32l3.14 1.88c2.24 1.35 4.65 2.38 7.15 3.07z" fill="#f0d0b4"/><circle cx="26" cy="24" r="1"/><circle cx="38" cy="24" r="1"/><path d="m32 34c-1.103 0-2-.897-2-2h-2c0 2.206 1.794 4 4 4s4-1.794 4-4h-2c0 1.103-.897 2-2 2z"/><path d="m42.652 15.25 1.936-.5c-1.482-5.74-6.658-9.75-12.588-9.75v2c5.018 0 9.397 3.393 10.652 8.25z"/><path d="m43 18v1h2v-1c0-.364-.015-.726-.044-1.083l-1.994.166c.025.303.038.607.038.917z"/><path d="m50.778 48.09c1.728-1.198 2.869-2.323 2.929-2.383l.79-.79-.872-.698c-2.939-2.351-4.625-5.859-4.625-9.622v-16.597c0-9.374-7.626-17-17-17s-17 7.626-17 17v16.597c0 3.764-1.686 7.271-4.625 9.622l-.872.698.79.79c.06.06 1.201 1.185 2.928 2.383-5.044 2.773-8.221 8.048-8.221 13.91v1h54v-1c0-5.862-3.177-11.138-8.222-13.91zm-33.778-13.493v-16.597c0-8.271 6.729-15 15-15s15 6.729 15 15v16.597c0 3.983 1.625 7.72 4.495 10.42-.647.555-1.658 1.344-2.852 2.075l-9.778-4.001c-1.134-.463-1.865-1.553-1.865-2.777v-.718c4.921-3.401 8-9.039 8-15.246v-3.35h-1c-5.052 0-10.013-1.374-14.346-3.974l-3.534-2.12-.437.146c-3.997 1.332-6.683 5.058-6.683 9.299 0 6.206 3.079 11.845 8 15.246v.718c0 1.224-.731 2.313-1.864 2.776l-9.778 4.001c-1.195-.731-2.205-1.52-2.853-2.075 2.87-2.701 4.495-6.437 4.495-10.42zm4 12.348v8.055h-2v-7.237zm11-7.003c-6.594-2.345-11-8.568-11-15.618 0-3.201 1.949-6.049 4.895-7.222l2.73 1.639c4.357 2.614 9.308 4.072 14.375 4.242v1.367c0 7.024-4.406 13.248-11 15.592zm-.316 2.006.316.106.316-.105c.947-.316 1.855-.702 2.719-1.152.072.748.306 1.452.678 2.076l-3.713 3.713-3.714-3.714c.372-.624.606-1.328.678-2.076.864.45 1.773.837 2.72 1.152zm-8.684 13.052v-8.234l.974 1.704c.892 1.561 2.562 2.53 4.36 2.53 1.322 0 2.616-.536 3.551-1.471l.115-.115.115.115c.935.935 2.229 1.471 3.551 1.471 1.798 0 3.469-.97 4.36-2.53l.974-1.704v8.234zm15.29-7.522c-.537.939-1.542 1.522-2.624 1.522-.796 0-1.574-.322-2.137-.885l-.115-.115 3.651-3.651c.32.232.663.439 1.041.594l1.323.541zm-11.355-3.129 3.651 3.651-.115.115c-.563.563-1.341.885-2.137.885-1.082 0-2.087-.583-2.624-1.522l-1.139-1.994 1.323-.541c.378-.155.721-.362 1.041-.594zm-9.494 12.651h29.117c.431 0 .812.274.949.684l1.106 3.316h-33.226l1.105-3.316c.137-.41.519-.684.949-.684zm27.559-2h-2v-8.055l2 .818zm-29.365-5.86 1.365-.559v6.454c-1.106.164-2.042.931-2.404 2.016l-1.316 3.949h-6.245c.373-5.255 3.665-9.842 8.6-11.86zm35.085 11.86-1.316-3.949c-.362-1.085-1.299-1.852-2.404-2.016v-6.454l1.365.559c4.935 2.019 8.227 6.605 8.6 11.86z"/></svg>