<svg height="496pt" viewBox="0 0 496 496" width="496pt" xmlns="http://www.w3.org/2000/svg"><path d="m344 40v248h-48v-5.28125c0-15.4375-11.039062-28.71875-26.238281-31.519531l-61.761719-11.199219v-24c21.039062 0 41.761719-4.878906 60.640625-14.320312l3.359375-1.679688 11.039062 11.039062c3.199219 3.199219 7.519532 4.960938 12 4.960938 4.640626 0 8.960938-1.921875 12-4.960938 3.039063-3.039062 4.960938-7.359374 4.960938-12v-167.039062h24c4.398438 0 8 3.601562 8 8zm0 0" fill="#fcd770"/><path d="m144 216v24l-61.761719 11.199219c-15.199219 2.800781-26.238281 16.082031-26.238281 31.519531v5.28125h-48v-248c0-4.398438 3.601562-8 8-8h24v167.039062c0 9.359376 7.601562 16.960938 16.960938 16.960938 4.480468 0 8.800781-1.761719 12-4.960938l11.039062-11.039062 3.359375 1.679688c18.878906 9.441406 39.601563 14.320312 60.640625 14.320312zm0 0" fill="#fcd770"/><path d="m296 288v72c0 8.800781-7.199219 16-16 16h-68c-11.039062 0-20-8.960938-20-20 0-5.519531 2.238281-10.558594 5.839844-14.160156 3.601562-3.601563 8.640625-5.839844 14.160156-5.839844h44v-48h-160v48h44c11.039062 0 20 8.960938 20 20 0 5.519531-2.238281 10.558594-5.839844 14.160156-3.601562 3.601563-8.640625 5.839844-14.160156 5.839844h-68c-8.800781 0-16-7.199219-16-16v-72h-48v200h336v-200zm0 0" fill="#ccd1d9"/><path d="m232 336v40h-20c-11.039062 0-20-8.960938-20-20 0-5.519531 2.238281-10.558594 5.839844-14.160156 3.601562-3.601563 8.640625-5.839844 14.160156-5.839844zm0 0" fill="#5cd6b3"/><path d="m296 288v72c0 8.800781-7.199219 16-16 16h-48v-40h24v-48h-160v48h44c11.039062 0 20 8.960938 20 20 0 5.519531-2.238281 10.558594-5.839844 14.160156-3.601562 3.601563-8.640625 5.839844-14.160156 5.839844h-68c-8.800781 0-16-7.199219-16-16v-77.28125c0-15.4375 11.039062-28.71875 26.238281-31.519531l61.761719-11.199219s8 16 32 16 32-16 32-16l61.761719 11.199219c15.199219 2.800781 26.238281 16.082031 26.238281 31.519531zm0 0" fill="#5cd6b3"/><path d="m144 240v-24l.238281-.480469c9.363281 5.441407 20.160157 8.480469 31.761719 8.480469s22.398438-3.121094 31.761719-8.480469l.238281.480469v24s-8 16-32 16-32-16-32-16zm0 0" fill="#f0d0b4"/><path d="m239.519531 168c.320313-2.640625.480469-5.28125.480469-8v-67.039062c0-7.921876-4.480469-15.199219-11.601562-18.722657-2.878907-1.519531-5.4375-3.597656-7.359376-6.160156l-3.4375-4.636719c-5.523437-7.363281-12.640624-13.203125-20.722656-17.203125-8-4.078125-17.039062-6.238281-26.238281-6.238281-32.402344 0-58.640625 26.238281-58.640625 58.640625v61.359375c0 2.71875.160156 5.359375.480469 8 2.558593 20.398438 14.640625 37.761719 31.757812 47.519531l-.238281.480469c-21.039062 0-41.761719-4.878906-60.640625-14.320312l-3.359375-1.679688-11.039062 11.039062c-3.199219 3.199219-7.519532 4.960938-12 4.960938-9.359376 0-16.960938-7.601562-16.960938-16.960938v-174.078124c0-4.640626 1.921875-8.960938 4.960938-12 3.039062-3.039063 7.359374-4.960938 12-4.960938 4.480468 0 8.800781 1.761719 12 4.960938l11.039062 11.039062c21.039062-10.558594 44.238281-16 67.761719-16h56.476562c23.523438 0 46.722657 5.441406 67.761719 16l11.039062-11.039062c3.199219-3.199219 7.519532-4.960938 12-4.960938 9.359376 0 16.960938 7.601562 16.960938 16.960938v174.078124c0 4.640626-1.921875 8.960938-4.960938 12-3.039062 3.039063-7.359374 4.960938-12 4.960938-4.480468 0-8.800781-1.761719-12-4.960938l-11.039062-11.039062-3.359375 1.679688c-18.878906 9.441406-39.601563 14.320312-60.640625 14.320312l-.238281-.480469c17.117187-9.757812 29.199219-27.121093 31.757812-47.519531zm0 0" fill="#ffeaa7"/><path d="m240 92.960938v11.039062h-128v-5.359375c0-32.402344 26.238281-58.640625 58.640625-58.640625 9.199219 0 18.238281 2.160156 26.238281 6.238281 8.082032 4 15.199219 9.839844 20.722656 17.203125l3.4375 4.636719c1.921876 2.5625 4.480469 4.640625 7.359376 6.160156 7.121093 3.523438 11.601562 10.800781 11.601562 18.722657zm0 0" fill="#b27946"/><path d="m112.480469 168h127.039062c-2.558593 20.398438-14.640625 37.761719-31.757812 47.519531-9.363281 5.359375-20.160157 8.480469-31.761719 8.480469s-22.398438-3.039062-31.761719-8.480469c-17.117187-9.757812-29.199219-27.121093-31.757812-47.519531zm0 0" fill="#e6e9ed"/><path d="m240 104v56c0 2.71875-.160156 5.359375-.480469 8h-127.039062c-.320313-2.640625-.480469-5.28125-.480469-8v-56zm0 0" fill="#f0d0b4"/><path d="m472 8h-80c-8.800781 0-16 7.199219-16 16v119.441406c0 3.117188.878906 6.078125 2.480469 8.558594 1.199219 1.839844 2.71875 3.441406 4.640625 4.71875l32.878906 27.28125v32h32v-32l32.878906-27.28125c1.921875-1.277344 3.441406-2.878906 4.640625-4.71875 1.601563-2.480469 2.480469-5.441406 2.480469-8.558594v-119.441406c0-8.800781-7.199219-16-16-16zm0 0" fill="#ff826e"/><path d="m200 128h16v16h-16zm0 0"/><path d="m136 128h16v16h-16zm0 0"/><path d="m424 264h16v16h-16zm0 0"/><path d="m424 296h16v16h-16zm0 0"/><path d="m424 392c0 4.40625-3.585938 8-8 8h-64v-360c0-8.824219-7.175781-16-16-16h-16.097656c-.519532-13.3125-11.4375-24-24.871094-24-6.574219 0-13.007812 2.664062-17.65625 7.3125l-7.03125 7.03125c-20.679688-9.398438-43.414062-14.34375-66.121094-14.34375h-56.453125c-22.707031 0-45.441406 4.945312-66.121093 14.34375l-7.03125-7.03125c-4.640626-4.648438-11.074219-7.3125-17.648438-7.3125-13.433594 0-24.34375 10.6875-24.871094 24h-16.097656c-8.824219 0-16 7.175781-16 16v456h352v-80h64c13.230469 0 24-10.769531 24-24v-64h-16zm-88 8h-88c-4.414062 0-8-3.59375-8-8v-8h40c13.230469 0 24-10.769531 24-24v-64h32zm-96-56h24v-64h-176v64h52c6.617188 0 12 5.382812 12 12s-5.382812 12-12 12h-68c-4.414062 0-8-3.59375-8-8v-77.296875c0-11.605469 8.289062-21.535156 19.703125-23.613281l56.730469-10.3125c5.078125 6.0625 15.992187 15.222656 35.566406 15.222656s30.488281-9.160156 35.566406-15.222656l56.730469 10.3125c11.414063 2.078125 19.703125 12.015625 19.703125 23.613281v77.296875c0 4.40625-3.585938 8-8 8h-40zm-16 24h-12c-6.617188 0-12-5.382812-12-12s5.382812-12 12-12h12zm8-272h-111.863281c1.398437-26.695312 23.488281-48 50.527343-48 15.863282 0 31.023438 7.574219 40.527344 20.265625l3.441406 4.582031c2.6875 3.578125 6.214844 6.519532 10.207032 8.519532 4.417968 2.207031 7.160156 6.640624 7.160156 11.578124zm-112 16h112v48h-112zm109.640625 64c-6.90625 23.105469-28.328125 40-53.640625 40s-46.734375-16.894531-53.640625-40zm-77.640625 51.800781c7.519531 2.671875 15.574219 4.199219 24 4.199219s16.480469-1.527344 24-4.199219v9.847657c-2.207031 3.023437-9.046875 10.351562-24 10.351562s-21.792969-7.328125-24-10.351562zm184 52.199219h-32.238281c-1.234375-18.144531-14.480469-33.351562-32.601563-36.648438l-55.160156-10.023437v-9.550781c18.816406-1.066406 37.441406-5.867188 54.40625-14.050782l6.96875 6.96875c4.648438 4.640626 11.082031 7.304688 17.65625 7.304688 13.769531 0 24.96875-11.199219 24.96875-24.96875v-159.03125h16zm-288-255.03125c0-4.945312 4.023438-8.96875 8.96875-8.96875 2.359375 0 4.671875.960938 6.34375 2.625l15.113281 15.109375 5.160157-2.574219c19.820312-9.921875 42.023437-15.160156 64.191406-15.160156h56.453125c22.167969 0 44.371093 5.238281 64.195312 15.160156l5.160157 2.574219 15.109374-15.109375c1.664063-1.664062 3.976563-2.625 6.335938-2.625 4.945312 0 8.96875 4.023438 8.96875 8.96875v174.0625c0 4.945312-4.023438 8.96875-8.96875 8.96875-2.359375 0-4.671875-.960938-6.34375-2.625l-15.113281-15.109375-8.527344 4.261719c-10.503906 5.257812-21.800781 8.832031-33.34375 11.023437 10.175781-12.414062 16.296875-28.277343 16.296875-45.550781v-67.054688c0-11.035156-6.136719-20.953124-16-25.890624-1.792969-.894532-3.367188-2.207032-4.558594-3.808594l-3.441406-4.582032c-12.519531-16.695312-32.464844-26.664062-53.335938-26.664062-36.761718 0-66.664062 29.902344-66.664062 66.664062v61.335938c0 17.273438 6.121094 33.136719 16.304688 45.558594-11.550782-2.191406-22.839844-5.765625-33.34375-11.023438l-8.527344-4.261718-15.113282 15.109374c-1.679687 1.65625-3.992187 2.617188-6.351562 2.617188-4.945312 0-8.96875-4.023438-8.96875-8.96875zm-32 15.03125h16v159.03125c0 13.769531 11.199219 24.96875 24.96875 24.96875 6.574219 0 13.007812-2.664062 17.65625-7.3125l6.96875-6.96875c16.964844 8.183594 35.589844 12.984375 54.40625 14.050781v9.550781l-55.160156 10.023438c-18.121094 3.304688-31.367188 18.511719-32.601563 36.65625h-32.238281zm320 440h-320v-184h32v64c0 13.230469 10.769531 24 24 24h68c15.441406 0 28-12.558594 28-28s-12.558594-28-28-28h-36v-32h144v32h-36c-15.441406 0-28 12.558594-28 28s12.558594 28 28 28h12v8c0 13.230469 10.769531 24 24 24h88zm0 0"/><path d="m472 0h-80c-13.230469 0-24 10.769531-24 24v119.441406c0 7.886719 3.839844 15.222656 10.3125 19.710938l29.6875 24.609375v36.238281h16v24h16v-24h16v-36.238281l29.6875-24.609375c6.472656-4.488282 10.3125-11.824219 10.3125-19.710938v-119.441406c0-13.230469-10.769531-24-24-24zm-88 24c0-4.40625 3.585938-8 8-8h80c4.414062 0 8 3.59375 8 8v119.441406c0 .191406-.054688.375-.070312.558594h-39.929688v16h24.464844l-19.34375 16h-26.242188l-19.304687-16h24.425781v-16h-39.929688c-.015624-.191406-.070312-.367188-.070312-.558594zm40 184v-16h16v16zm0 0"/><path d="m424 112h16v-16h16v-16h-16v-16h-16v16h-16v16h16zm0 0"/></svg>