<svg id="Capa_1" enable-background="new 0 0 490 490" height="512" viewBox="0 0 490 490" width="512" xmlns="http://www.w3.org/2000/svg"><g><g><path d="m374.094 351.469c-9.53 8.69-19.63 17.51-29.93 26.02-4.08 3.38-8.19 6.7-12.31 9.95-42.41 33.5-85.53 59.11-103.73 47.57-24.42-15.5-7.43-100.13 13.4-167.65 20.82-67.53 65.5-68.54 116.09-36.45 50.58 32.1 68.7 72.95 16.48 120.56z" fill="#eab74d"/><path d="m380.684 247.119-22.99-14.59-24.58-15.59c-12.34-55.13 13.74-165.74 47.85-126.97 0 0 33.72-29.99 70.35-6.75 10.65 6.76 17.12 15.21 20.94 23.81 5.07 11.37 5.49 22.99 4.82 31.23-.57 6.93-1.91 11.48-1.91 11.48 49.62 14.35-39.35 85.05-94.48 97.38z" fill="#77bf9a"/><path d="m472.259 107.026c-20.949-23.803-89.113 11.795-93.812 66.403-2.519 29.277-12.261 48.021-20.757 59.102l-24.58-15.587c-12.331-55.131 13.742-165.746 47.859-126.97 0 0 33.712-29.996 70.341-6.75 10.653 6.758 17.128 15.204 20.949 23.802z" fill="#66a582"/><g fill="#d09d3f"><path d="m228.118 435.009c-24.42-15.493-7.419-100.126 13.401-167.654s65.502-68.533 116.085-36.441c-22.513-14.272-49.766-2.21-79.299 59.779-29.521 61.987-61.038 137.389-50.187 144.316z"/><path d="m344.164 377.489c-4.08 3.38-8.19 6.7-12.31 9.95l-26.93-17.08c-3.5-2.22-4.54-6.86-2.32-10.35 2.22-3.5 6.86-4.54 10.35-2.32z"/><path d="m382.23 311.176c-1.374 0-2.765-.377-4.011-1.168l-38.373-24.345c-3.498-2.219-4.534-6.853-2.315-10.351 2.22-3.498 6.853-4.535 10.351-2.315l38.373 24.345c3.498 2.219 4.534 6.853 2.315 10.351-1.429 2.251-3.857 3.483-6.34 3.483z"/><path d="m331.748 331.784c-1.374 0-2.765-.377-4.011-1.168l-23.491-14.904c-3.498-2.219-4.534-6.853-2.315-10.351 2.22-3.498 6.852-4.534 10.351-2.315l23.491 14.904c3.498 2.219 4.534 6.853 2.315 10.351-1.429 2.252-3.858 3.483-6.34 3.483z"/></g></g><path d="m235.645 490h-184.679c-27.978 0-50.658-22.681-50.658-50.658v-388.684c-.001-27.977 22.68-50.658 50.658-50.658h184.679c27.978 0 50.658 22.681 50.658 50.658v388.683c.001 27.978-22.68 50.659-50.658 50.659z" fill="#526071"/><path d="m.309 66.059h286v352.88h-286z" fill="#66a582"/><path d="m195.699 66.059-94.66 352.88h-100.73v-352.88z" fill="#77bf9a"/><path d="m.309 66.059h285.99v95.21h-285.99z" fill="#ddc448"/><path d="m195.699 66.059-25.54 95.21h-169.85v-95.21z" fill="#f5dc60"/><path d="m177.305 41.768h-68c-4.142 0-7.5-3.358-7.5-7.5s3.358-7.5 7.5-7.5h68c4.142 0 7.5 3.358 7.5 7.5s-3.358 7.5-7.5 7.5z" fill="#3e4a56"/><path d="m143.305 476.307c-12.295 0-22.297-10.003-22.297-22.298s10.002-22.298 22.297-22.298 22.297 10.003 22.297 22.298-10.002 22.298-22.297 22.298z" fill="#3e4a56"/><path d="m250.301 143.77c-1.486 0-2.988-.441-4.298-1.359l-31.625-22.168-31.466 19.409c-2.866 1.768-6.559 1.409-9.031-.878l-31.139-28.811-30.682 22.367c-2.995 2.184-7.136 1.852-9.746-.782l-29.846-30.125-30.387 36.635c-2.645 3.189-7.374 3.629-10.561.985-3.188-2.644-3.629-7.373-.985-10.561l35.667-43.001c1.352-1.629 3.328-2.611 5.442-2.705 2.12-.092 4.169.71 5.659 2.214l31.129 31.421 30.458-22.203c2.895-2.112 6.88-1.879 9.512.555l31.484 29.131 30.817-19.01c2.55-1.573 5.79-1.477 8.242.242l35.667 25c3.392 2.378 4.214 7.055 1.837 10.447-1.458 2.083-3.784 3.197-6.148 3.197z" fill="#fff"/><g fill="#3e4a56"><path d="m84.467 251.576h-27.094v-2.196c0-3.945 5.32-7.676 11.479-11.996 8.925-6.26 20.033-14.05 20.033-26.908 0-11.889-9.593-20.854-22.313-20.854-12.222 0-21.438 8.046-21.438 18.715 0 5.982 3.354 7.238 6.168 7.238 4.512 0 6.947-2.777 6.947-5.39 0-7.337 5.821-8.129 8.323-8.129 7.107 0 9.004 5.477 9.004 8.712 0 6.632-7.279 11.951-14.985 17.582-8.269 6.042-16.819 12.29-16.819 21.03v9.434c0 2.89 3.199 4.904 6.071 4.904h34.625c2.613 0 4.904-2.883 4.904-6.168 0-3.238-2.246-5.974-4.905-5.974z"/><path d="m117.34 189.622c-15.016 0-23.286 8.235-23.286 23.189v28.302c0 14.953 8.27 23.189 23.286 23.189 14.86 0 23.383-8.452 23.383-23.189v-28.302c.001-14.737-8.522-23.189-23.383-23.189zm-9.976 23.189c0-7.433 3.263-11.047 9.977-11.047 6.685 0 10.074 3.717 10.074 11.047v28.302c0 7.33-3.389 11.046-10.074 11.046-6.713 0-9.977-3.613-9.977-11.046z"/><path d="m170.93 189.622c-15.016 0-23.286 8.235-23.286 23.189v28.302c0 14.953 8.27 23.189 23.286 23.189 14.86 0 23.383-8.452 23.383-23.189v-28.302c0-14.737-8.523-23.189-23.383-23.189zm-9.977 23.189c0-7.433 3.263-11.047 9.977-11.047 6.685 0 10.074 3.717 10.074 11.047v28.302c0 7.33-3.39 11.046-10.074 11.046-6.713 0-9.977-3.613-9.977-11.046z"/><path d="m224.52 189.622c-15.017 0-23.286 8.235-23.286 23.189v28.302c0 14.953 8.27 23.189 23.286 23.189 14.86 0 23.383-8.452 23.383-23.189v-28.302c-.001-14.737-8.523-23.189-23.383-23.189zm-9.977 23.189c0-7.433 3.264-11.047 9.977-11.047 6.685 0 10.074 3.717 10.074 11.047v28.302c0 7.33-3.39 11.046-10.074 11.046-6.713 0-9.977-3.613-9.977-11.046z"/></g><g fill="#3e4a56"><path d="m81.24 295.518c8.442 0 12.771 3.944 13.234 12.036.073 1.757 1.016 5.844 8.172 5.844 5.805 0 8.173-2.441 8.173-8.426 0-14.302-12.371-24.291-30.083-24.291-18.718 0-29.453 10.781-29.453 29.579v36.641c0 18.798 10.689 29.579 29.327 29.579 17.786 0 30.208-10.3 30.208-25.046 0-5.984-2.404-8.425-8.299-8.425-6.279 0-7.839 3.15-8.041 5.771-.592 6.509-2.083 12.865-12.987 12.865-9.328 0-13.862-4.823-13.862-14.743v-36.641c.001-9.92 4.453-14.743 13.611-14.743z"/><path d="m158.844 285.485c-1.125-3.377-5.045-5.559-9.985-5.559-4.864 0-8.734 2.182-9.871 5.593l-25.046 81.559c-.203.609-.203 1.163-.203 1.608 0 4.149 5.17 7.04 9.811 7.04 4.26 0 5.645-2.395 6.1-3.854l4.85-16.796h28.845l4.859 16.827c.771 2.465 2.889 3.823 5.964 3.823 4.69 0 9.937-3.011 9.937-7.04 0-.621-.182-1.168-.317-1.572zm.607 55.888h-21.184l10.592-36.33z"/><path d="m238.641 360.89h-31.238v-74.427c0-3.512-3.208-5.781-8.173-5.781-4.889 0-8.174 2.323-8.174 5.781v83.356c0 3.878 3.732 5.907 7.418 5.907h40.167c3.63 0 5.529-3.732 5.529-7.418 0-4.367-2.274-7.418-5.529-7.418z"/></g><path d="m477.074 138.259c-.57 6.93-1.91 11.48-1.91 11.48-38.16 16.53-68.16 60.53-68.16 60.53s13.05-53.76 70.07-72.01z" fill="#66a582"/></g></svg>