<svg id="Layer_35" enable-background="new 0 0 64 64" height="512" viewBox="0 0 64 64" width="512" xmlns="http://www.w3.org/2000/svg" xmlns:xlink="http://www.w3.org/1999/xlink"><linearGradient id="SVGID_1_" gradientUnits="userSpaceOnUse" x1="32" x2="32" y1="63" y2="1.684"><stop offset="0" stop-color="#9f2fff"/><stop offset="1" stop-color="#0bb1d3"/></linearGradient><path d="m51.322 49.983.603 1.907-1.906.603-.603-1.907zm-3.076-3.262c.179.652.367 1.302.566 1.949l1.912-.588c-.193-.628-.376-1.258-.551-1.891zm2.959 9.56 1.924-.545c-.061-.216-.126-.431-.193-.647l-.407-1.291-1.908.602.407 1.29c.061.195.12.393.177.591zm.805-36.281h10.99v2h-11v7.989c0 .671.015 1.342.038 2.011h10.962v2h-10.854c.315 4.511 1.155 8.966 2.521 13.292l2.082 6.593c.83 2.629 1.251 5.36 1.251 8.115v1h-24v-10.121c-.655.078-1.328.121-2 .121s-1.345-.043-2-.121v10.121h-24v-1c0-2.755.421-5.486 1.25-8.115l2.083-6.593c1.768-5.6 2.666-11.418 2.667-17.292h-11v-2h11v-7.513c0-6.188-.992-12.302-2.948-18.17l1.896-.633c2.026 6.073 3.052 12.399 3.052 18.803v6.378l4.359-3.633 1.281 1.536-5.64 4.701v.52c0 6.083-.929 12.106-2.761 17.905l-2.082 6.593c-.667 2.116-1.049 4.302-1.137 6.513h19.98v-8.5c-2.289-.614-4-1.79-4-3.5h2c0 .548 1.39 1.445 3.752 1.821l-.606-3.821h-1.146c-2.206 0-4-1.794-4-4 0-.859.284-1.711.799-2.399.851-1.134 1.955-2.037 3.201-2.656v-9.873c0-3.87-1.37-7.525-3.863-10.433-.084.247-.137.506-.137.775v1l-1.465 1.464c-.723.724-1.683 1.122-2.707 1.122-2.11 0-3.828-1.717-3.828-3.829 0-.885.142-1.759.421-2.599l.121-.36c1.044-3.132 3.538-5.626 6.672-6.671l.358-.12c.84-.279 1.714-.421 2.6-.421 2.11 0 3.828 1.717 3.828 3.829 0 1.022-.398 1.983-1.121 2.707l-1.465 1.464h-1c-.316 0-.621.062-.905.177 2.894 3.296 4.491 7.468 4.491 11.894v9.161c.652-.15 1.322-.232 2-.232s1.349.082 2 .232v-9.161c0-4.426 1.597-8.598 4.491-11.894-.284-.115-.59-.177-.905-.177h-1l-1.465-1.464c-.723-.724-1.121-1.685-1.121-2.707 0-2.112 1.718-3.829 3.828-3.829.886 0 1.76.142 2.6.422l.358.12c3.134 1.044 5.628 3.539 6.672 6.672l.12.357c.28.841.422 1.715.422 2.6 0 2.112-1.718 3.829-3.828 3.829-1.023 0-1.984-.398-2.707-1.122l-1.465-1.463v-1c0-.269-.053-.528-.137-.776-2.493 2.908-3.863 6.562-3.863 10.432v9.873c1.246.619 2.35 1.521 3.2 2.655.516.689.8 1.541.8 2.4 0 2.206-1.794 4-4 4h-1.148l-.615 3.823c2.368-.374 3.763-1.273 3.763-1.822h2c0 1.71-1.711 2.886-4 3.5v8.5h19.98c-.089-2.211-.471-4.397-1.139-6.514l-2.081-6.592c-1.174-3.716-1.972-7.526-2.398-11.383l-2.744 5.489h-5.618v-2h4.382l3.683-7.365c-.04-.881-.065-1.763-.065-2.646v-7.989h-2v-2h2.01c.051-6.237 1.068-12.397 3.042-18.316l1.896.633c-1.904 5.714-2.887 11.661-2.938 17.683zm-14.424-6c1.179 0 2.287.459 3.121 1.292s1.293 1.942 1.293 3.122v.171l.879.879c.341.341.811.536 1.293.536 1.008 0 1.828-.82 1.828-1.829 0-.67-.107-1.332-.319-1.967l-.119-.357c-.847-2.541-2.868-4.562-5.408-5.408l-.358-.12c-.636-.212-1.298-.319-1.968-.319-1.008 0-1.828.82-1.828 1.829 0 .488.19.948.535 1.293l.879.878zm-14.293 1.292c.834-.833 1.942-1.292 3.121-1.292h.172l.879-.878c.345-.346.535-.805.535-1.293 0-1.009-.82-1.829-1.828-1.829-.67 0-1.332.107-1.967.319l-.358.12c-2.54.846-4.562 2.868-5.408 5.407l-.12.36c-.212.634-.319 1.295-.319 1.965 0 1.009.82 1.829 1.828 1.829.481 0 .952-.195 1.293-.535l.879-.88v-.171c0-1.18.459-2.288 1.293-3.122zm4.707 29.708h1.171c.413-1.164 1.525-2 2.829-2s2.416.836 2.829 2h1.171c1.103 0 2-.897 2-2 0-.43-.142-.856-.4-1.2-1.315-1.753-3.408-2.8-5.6-2.8s-4.285 1.047-5.601 2.8c-.257.344-.399.77-.399 1.2 0 1.103.897 2 2 2zm4 6c.064 0 .12-.007.184-.008l.809-5.027c-.02-.534-.454-.965-.993-.965-.54 0-.974.432-.993.966l.797 5.025c.067.001.127.009.196.009zm-20.935 4.089c-.176.556-.331 1.123-.462 1.685l1.947.453c.12-.516.261-1.028.422-1.536l.123-.39-1.908-.602zm3.293-3.788-1.906-.603-.632 2 1.906.603zm.696-2.202c1.747-5.53 2.728-11.272 2.913-17.066l-1.998-.064c-.181 5.612-1.13 11.173-2.821 16.526l-.064.203 1.906.606zm38.946-11.099h9v-2h-9zm2 4h7v-2h-7zm-46-18h-9v2h9zm0-4h-9v2h9zm44 6h9v-2h-9z" fill="url(#SVGID_1_)"/></svg>