<?xml version="1.0" encoding="UTF-8"?>
<svg xmlns="http://www.w3.org/2000/svg" id="filled_outline" data-name="filled outline" viewBox="0 0 512 512" width="512" height="512"><polygon points="176 336 176 496 120 496 112 440 96 496 48 496 48 336 176 336" style="fill:#56679c"/><path d="M272,177.14283l-54.4381-62.215A32,32,0,0,0,193.47942,104H61.58853A37.58853,37.58853,0,0,0,24,141.58853v.00005a37.58857,37.58857,0,0,0,5.35663,19.33914L40,178.66671l0,0V416H96l16-48,16,48h56V152l56,64h32Z" style="fill:#96cffa"/><polygon points="320 496 344 376 344 496 400 496 400 320 272 320 272 496 320 496" style="fill:#e6b47c"/><path d="M488,272.6499V408a15.99559,15.99559,0,0,1-16,16H440V392h-4.69a11.31393,11.31393,0,0,1-8-19.31006L440,360V288l-13.91-25.04L400,216V320H272V216l-40,72,24,56h12.69a11.31393,11.31393,0,0,1,8,19.31006L272,368l16,24-17.28,11.52a26.66883,26.66883,0,0,1-38.27-9.54L192.62,320a72.04445,72.04445,0,0,1,3.49-74.16l42.39-63.59A32.09037,32.09037,0,0,1,265.13,168H413.62a32,32,0,0,1,27.64,15.88l32.29,55.35L483.64,256.53A31.939,31.939,0,0,1,488,272.6499Z" style="fill:#ffceb6"/><path d="M473.55,239.23l-47.46,23.73L400,216V320H272V216l-15.59-46.78a31.72152,31.72152,0,0,1,8.72-1.22H413.62a32,32,0,0,1,27.64,15.88Z" style="fill:#51a37e"/><path d="M352,144v40a16,16,0,1,1-32,0V144Z" style="fill:#ffceb6"/><path d="M352,112l.00348,40a24,24,0,0,1-24,24h0a24,24,0,0,1-24-24L304,112Z" style="fill:#ffceb6"/><path d="M336,120.00005l-2.34315,2.34315A19.31367,19.31367,0,0,1,320,128h0a32,32,0,0,1-32-32V88h46.11148A25.88853,25.88853,0,0,1,360,113.88855v0a25.88851,25.88851,0,0,1-2.73312,11.57769L352,136Z" style="fill:#b36f42"/><polygon points="96 104 120 152 144 104 96 104" style="fill:#c4e9ff"/><polygon points="152 136 176 112 232 168 232 184 224 192 208 192 152 136" style="fill:#e4e9f2"/><path d="M166.15385,197.53846,144,168l24-24h32v18.8253a24,24,0,0,1-11.115,20.24787Z" style="fill:#ffceb6"/><path d="M144,56V88.01a24,24,0,0,1-48,0V56Z" style="fill:#ffceb6"/><path d="M144,88.01a24,24,0,0,1-48,0l18.94-6.32a15.92942,15.92942,0,0,1,10.12,0Z" style="fill:#96cffa"/><path d="M120,24h0a24,24,0,0,1,24,24v8a0,0,0,0,1,0,0H96a0,0,0,0,1,0,0V48a24,24,0,0,1,24-24Z" style="fill:#c4e9ff"/><path d="M440,432h32a24.02687,24.02687,0,0,0,24-24V272.65137a40.04573,40.04573,0,0,0-5.44873-20.15479l-42.37988-72.65185A40.13573,40.13573,0,0,0,413.62012,160H360l.00342-22.11859,4.41894-8.83746A33.88865,33.88865,0,0,0,334.11133,80H288a7.99977,7.99977,0,0,0-8,8v8a39.96232,39.96232,0,0,0,16.00342,31.98083V152a31.94753,31.94753,0,0,0,1.01257,8H267.63007l-44.04755-50.34033A39.99865,39.99865,0,0,0,193.47949,96H150.989A31.94879,31.94879,0,0,0,152,88.00537V48a32,32,0,0,0-64,0V88.00537A31.94879,31.94879,0,0,0,89.01105,96H61.58838a45.58892,45.58892,0,0,0-39.0918,69.044L32,180.88293V416a7.99977,7.99977,0,0,0,8,8v72H56V424H96a8.00011,8.00011,0,0,0,7.58936-5.47021L112,393.29834l8.41064,25.23145A8.00011,8.00011,0,0,0,128,424h40v72h16V424a7.99977,7.99977,0,0,0,8-8V352H176v56H133.76611L120,366.70215V235.55023a54.74809,54.74809,0,0,0,7.75635-4.09418L176,200.75525V224h16V190.5733l1.18018-.751c.27026-.172.5263-.35944.79016-.53846l8.37292,8.37293A7.99877,7.99877,0,0,0,208,200h9.05225l-27.60157,41.40234a80.08656,80.08656,0,0,0-3.87841,82.39258l39.833,73.9751A34.60525,34.60525,0,0,0,264,415.0365V496h16V406.94775l12.43749-8.2915a7.9992,7.9992,0,0,0,2.21876-11.09375l-12.36182-18.543.04883-.04932A19.30444,19.30444,0,0,0,280,339.669V328H392V496h16V246.87305l24,43.1997V356.686l-10.34326,10.34375A19.31528,19.31528,0,0,0,432,399.71582V424A7.99977,7.99977,0,0,0,440,432ZM328,183.99994l.00342.00006A31.79269,31.79269,0,0,0,344,179.697V184a8,8,0,0,1-16,0ZM334.11133,96a17.88923,17.88923,0,0,1,16.00049,25.88867l-.30323.606-8.15185-8.15137a7.99945,7.99945,0,0,0-11.31348,0L328,116.68652A11.23986,11.23986,0,0,1,320,120a24.02687,24.02687,0,0,1-24-24ZM320,136a27.11363,27.11363,0,0,0,15.71875-4.96777l8.28467,8.28466V152H344v.06744A15.99836,15.99836,0,0,1,312.00342,152V135.19568A40.02572,40.02572,0,0,0,320,136ZM211.5415,120.1958,249.251,163.29266A39.84718,39.84718,0,0,0,240,168.87311V168a7.99877,7.99877,0,0,0-2.34326-5.65674L187.31348,112h6.166A23.99994,23.99994,0,0,1,211.5415,120.1958ZM171.314,152H192v10.8252a15.92507,15.92507,0,0,1-7.40967,13.49853L168.10876,186.812l-13.54595-18.06128ZM168,136a7.99833,7.99833,0,0,0-3.75146.93506L163.31348,136,176,123.31348,188.68652,136ZM136,76.90356l-8.40723-2.80444a24.15356,24.15356,0,0,0-15.18652.00049L104,76.90363V64h32ZM117.46777,89.27783a8.053,8.053,0,0,1,5.06348-.00049l12.496,4.16828a15.97228,15.97228,0,0,1-30.0545,0ZM120,120.00537a31.945,31.945,0,0,0,7.5014-.89661L120,134.11133l-7.5014-15.00257A31.945,31.945,0,0,0,120,120.00537ZM120,32a16.01833,16.01833,0,0,1,16,16H104A16.01833,16.01833,0,0,1,120,32ZM104,366.70215,90.23389,408H48V207.5495l3.5498,5.91632A54.61544,54.61544,0,0,0,104,239.71143ZM119.1665,217.957a38.65321,38.65321,0,0,1-53.897-12.72363L36.21631,156.812A29.58912,29.58912,0,0,1,61.58838,112H91.05591l21.78882,43.57764a7.99971,7.99971,0,0,0,14.31054,0L148.94409,112h15.74243l-18.34326,18.34326a7.99915,7.99915,0,0,0,0,11.31348L152.68652,148l-13.00781,13.00781-39.62646,13.2085-20.897-41.79395-14.31054,7.15528,24,48a7.99975,7.99975,0,0,0,9.68506,4.01172l42.53-14.17664,13.51087,18.01447Zm85.4018-40.70221A31.96669,31.96669,0,0,0,208,162.8252v-7.51172l16,16v9.373L220.68652,184h-9.373Zm34.92486,212.92926-39.833-73.97461a64.08683,64.08683,0,0,1,3.103-65.93213l30.48047-45.72021,9.09961,9.09961,11.31348-11.31348L242.29449,190.981l2.86274-4.294a23.99486,23.99486,0,0,1,6.46441-6.52429l11.67609,35.02838-38.29089,68.92365a7.99922,7.99922,0,0,0-.35987,7.03662l24,56A7.99956,7.99956,0,0,0,256,352h12.68652a3.31388,3.31388,0,0,1,2.34327,5.65674l-4.68653,4.68652a7.99946,7.99946,0,0,0-.99951,10.09424l11.562,17.34375-10.62646,7.084a18.66354,18.66354,0,0,1-26.78614-6.68115ZM264,246.87305V336h-2.72461l-20.37646-47.54492Zm142.99316-34.7583A8,8,0,0,0,392,216v96H280V216a7.98265,7.98265,0,0,0-.413-2.529l.00232-.0008-.02649-.07952-.00519-.01551L267.0993,176h39.77179A32.15467,32.15467,0,0,0,312,179.69305V184a24,24,0,0,0,48,0v-8h53.62012a24.0823,24.0823,0,0,1,20.731,11.90674l27.9878,47.97973-32.97852,16.48926Zm25.97705,166.22851,12.68653-12.68652A7.99877,7.99877,0,0,0,448,360V288a8.00209,8.00209,0,0,0-1.00684-3.88525l-9.85534-17.73951,33.27948-16.63983,6.31317,10.8227A24.02443,24.02443,0,0,1,480,272.65137V408a8.00917,8.00917,0,0,1-8,8H448V392a7.99977,7.99977,0,0,0-8-8h-4.68652a3.31388,3.31388,0,0,1-2.34327-5.65674Z"/><path d="M352,496V376a8.00005,8.00005,0,0,0-15.84473-1.56885l-24,120,15.68946,3.1377L336,456.792V496Z"/><path d="M112.48242,424.01465a7.993,7.993,0,0,0-8.24365,6.04492l-16,64,15.52246,3.88086,5.61279-22.45117,2.688,21.50293,15.876-1.98438-8-64A7.999,7.999,0,0,0,112.48242,424.01465Z"/><rect x="64" y="280" width="24" height="16"/><rect x="136" y="280" width="24" height="16"/></svg>
